solid OpenSCAD_Model
  facet normal 1 0 0
    outer loop
      vertex 156.98611111193895 127.88194444775581 0
      vertex 156.98611111193895 48.506944447755814 0.6
      vertex 156.98611111193895 48.506944447755814 0
    endloop
  endfacet
  facet normal 1 0 0
    outer loop
      vertex 156.98611111193895 127.88194444775581 0
      vertex 156.98611111193895 127.88194444775581 0.6
      vertex 156.98611111193895 48.506944447755814 0.6
    endloop
  endfacet
  facet normal 0.49972245350311295 0.8661855860407913 0
    outer loop
      vertex 88.19444444775581 167.5694444477558 0
      vertex 156.98611111193895 127.88194444775581 0.6
      vertex 156.98611111193895 127.88194444775581 0
    endloop
  endfacet
  facet normal 0.49972245350311295 0.8661855860407913 0
    outer loop
      vertex 88.19444444775581 167.5694444477558 0
      vertex 88.19444444775581 167.5694444477558 0.6
      vertex 156.98611111193895 127.88194444775581 0.6
    endloop
  endfacet
  facet normal -0.4997224534625056 0.8661855860642186 0
    outer loop
      vertex 19.402777776122093 127.88194444775581 0
      vertex 88.19444444775581 167.5694444477558 0.6
      vertex 88.19444444775581 167.5694444477558 0
    endloop
  endfacet
  facet normal -0.4997224534625056 0.8661855860642186 0
    outer loop
      vertex 19.402777776122093 127.88194444775581 0
      vertex 19.402777776122093 127.88194444775581 0.6
      vertex 88.19444444775581 167.5694444477558 0.6
    endloop
  endfacet
  facet normal -1 0 0
    outer loop
      vertex 19.402777776122093 48.506944447755814 0
      vertex 19.402777776122093 127.88194444775581 0.6
      vertex 19.402777776122093 127.88194444775581 0
    endloop
  endfacet
  facet normal -1 0 0
    outer loop
      vertex 19.402777776122093 48.506944447755814 0
      vertex 19.402777776122093 48.506944447755814 0.6
      vertex 19.402777776122093 127.88194444775581 0.6
    endloop
  endfacet
  facet normal -0.4997224534625056 -0.8661855860642186 0
    outer loop
      vertex 88.19444444775581 8.819444447755814 0
      vertex 19.402777776122093 48.506944447755814 0.6
      vertex 19.402777776122093 48.506944447755814 0
    endloop
  endfacet
  facet normal -0.4997224534625056 -0.8661855860642186 0
    outer loop
      vertex 88.19444444775581 8.819444447755814 0
      vertex 88.19444444775581 8.819444447755814 0.6
      vertex 19.402777776122093 48.506944447755814 0.6
    endloop
  endfacet
  facet normal 0.49972245350311295 -0.8661855860407913 0
    outer loop
      vertex 156.98611111193895 48.506944447755814 0
      vertex 88.19444444775581 8.819444447755814 0.6
      vertex 88.19444444775581 8.819444447755814 0
    endloop
  endfacet
  facet normal 0.49972245350311295 -0.8661855860407913 0
    outer loop
      vertex 156.98611111193895 48.506944447755814 0
      vertex 156.98611111193895 48.506944447755814 0.6
      vertex 88.19444444775581 8.819444447755814 0.6
    endloop
  endfacet
  facet normal 1 0 0
    outer loop
      vertex 118.18055555224419 74.08333333581686 0
      vertex 118.18055555224419 74.08333333581686 0.6
      vertex 118.18055555224419 68.99918300658464 0
    endloop
  endfacet
  facet normal 1 0 0
    outer loop
      vertex 118.18055555224419 68.99918300658464 0.6
      vertex 118.18055555224419 68.99918300658464 0
      vertex 118.18055555224419 74.08333333581686 0.6
    endloop
  endfacet
  facet normal 0 1 0
    outer loop
      vertex 115.29953703284264 74.08333333581686 0
      vertex 115.29953703284264 74.08333333581686 0.6
      vertex 118.18055555224419 74.08333333581686 0
    endloop
  endfacet
  facet normal 0 1 0
    outer loop
      vertex 118.18055555224419 74.08333333581686 0.6
      vertex 118.18055555224419 74.08333333581686 0
      vertex 115.29953703284264 74.08333333581686 0.6
    endloop
  endfacet
  facet normal 0.8700221858324452 0.4930125720094105 0
    outer loop
      vertex 102.30555555224419 97.01388888806105 0
      vertex 102.30555555224419 97.01388888806105 0.6
      vertex 115.29953703284264 74.08333333581686 0
    endloop
  endfacet
  facet normal 0.8700221858324452 0.4930125720094105 0
    outer loop
      vertex 115.29953703284264 74.08333333581686 0.6
      vertex 115.29953703284264 74.08333333581686 0
      vertex 102.30555555224419 97.01388888806105 0.6
    endloop
  endfacet
  facet normal 1 0 0
    outer loop
      vertex 102.30555555224419 118.18055555224419 0
      vertex 102.30555555224419 118.18055555224419 0.6
      vertex 102.30555555224419 97.01388888806105 0
    endloop
  endfacet
  facet normal 1 0 0
    outer loop
      vertex 102.30555555224419 97.01388888806105 0.6
      vertex 102.30555555224419 97.01388888806105 0
      vertex 102.30555555224419 118.18055555224419 0.6
    endloop
  endfacet
  facet normal 0 -1 0
    outer loop
      vertex 109.36111111193895 118.18055555224419 0
      vertex 109.36111111193895 118.18055555224419 0.6
      vertex 102.30555555224419 118.18055555224419 0
    endloop
  endfacet
  facet normal 0 -1 0
    outer loop
      vertex 102.30555555224419 118.18055555224419 0.6
      vertex 102.30555555224419 118.18055555224419 0
      vertex 109.36111111193895 118.18055555224419 0.6
    endloop
  endfacet
  facet normal 1 0 0
    outer loop
      vertex 109.36111111193895 128.76388888806105 0
      vertex 109.36111111193895 128.76388888806105 0.6
      vertex 109.36111111193895 118.18055555224419 0
    endloop
  endfacet
  facet normal 1 0 0
    outer loop
      vertex 109.36111111193895 118.18055555224419 0.6
      vertex 109.36111111193895 118.18055555224419 0
      vertex 109.36111111193895 128.76388888806105 0.6
    endloop
  endfacet
  facet normal 0 1 0
    outer loop
      vertex 67.0277777761221 128.76388888806105 0
      vertex 67.0277777761221 128.76388888806105 0.6
      vertex 109.36111111193895 128.76388888806105 0
    endloop
  endfacet
  facet normal 0 1 0
    outer loop
      vertex 109.36111111193895 128.76388888806105 0.6
      vertex 109.36111111193895 128.76388888806105 0
      vertex 67.0277777761221 128.76388888806105 0.6
    endloop
  endfacet
  facet normal -1 0 0
    outer loop
      vertex 67.0277777761221 118.18055555224419 0
      vertex 67.0277777761221 118.18055555224419 0.6
      vertex 67.0277777761221 128.76388888806105 0
    endloop
  endfacet
  facet normal -1 0 0
    outer loop
      vertex 67.0277777761221 128.76388888806105 0.6
      vertex 67.0277777761221 128.76388888806105 0
      vertex 67.0277777761221 118.18055555224419 0.6
    endloop
  endfacet
  facet normal 0 -1 0
    outer loop
      vertex 74.08333333581686 118.18055555224419 0
      vertex 74.08333333581686 118.18055555224419 0.6
      vertex 67.0277777761221 118.18055555224419 0
    endloop
  endfacet
  facet normal 0 -1 0
    outer loop
      vertex 67.0277777761221 118.18055555224419 0.6
      vertex 67.0277777761221 118.18055555224419 0
      vertex 74.08333333581686 118.18055555224419 0.6
    endloop
  endfacet
  facet normal -1 0 0
    outer loop
      vertex 74.08333333581686 97.01388888806105 0
      vertex 74.08333333581686 97.01388888806105 0.6
      vertex 74.08333333581686 118.18055555224419 0
    endloop
  endfacet
  facet normal -1 0 0
    outer loop
      vertex 74.08333333581686 118.18055555224419 0.6
      vertex 74.08333333581686 118.18055555224419 0
      vertex 74.08333333581686 97.01388888806105 0.6
    endloop
  endfacet
  facet normal -0.8700221858324452 0.4930125720094105 0
    outer loop
      vertex 61.08935185521841 74.08333333581686 0
      vertex 61.08935185521841 74.08333333581686 0.6
      vertex 74.08333333581686 97.01388888806105 0
    endloop
  endfacet
  facet normal -0.8700221858324452 0.4930125720094105 0
    outer loop
      vertex 74.08333333581686 97.01388888806105 0.6
      vertex 74.08333333581686 97.01388888806105 0
      vertex 61.08935185521841 74.08333333581686 0.6
    endloop
  endfacet
  facet normal 0 1 0
    outer loop
      vertex 58.20833333581686 74.08333333581686 0
      vertex 58.20833333581686 74.08333333581686 0.6
      vertex 61.08935185521841 74.08333333581686 0
    endloop
  endfacet
  facet normal 0 1 0
    outer loop
      vertex 61.08935185521841 74.08333333581686 0.6
      vertex 61.08935185521841 74.08333333581686 0
      vertex 58.20833333581686 74.08333333581686 0.6
    endloop
  endfacet
  facet normal -1 0 0
    outer loop
      vertex 58.20833333581686 68.99918300658464 0
      vertex 58.20833333581686 68.99918300658464 0.6
      vertex 58.20833333581686 74.08333333581686 0
    endloop
  endfacet
  facet normal -1 0 0
    outer loop
      vertex 58.20833333581686 74.08333333581686 0.6
      vertex 58.20833333581686 74.08333333581686 0
      vertex 58.20833333581686 68.99918300658464 0.6
    endloop
  endfacet
  facet normal -0.8700221857972248 0.49301257207156424 0
    outer loop
      vertex 45.94415020942688 47.356506906449795 0
      vertex 45.94415020942688 47.356506906449795 0.6
      vertex 58.20833333581686 68.99918300658464 0
    endloop
  endfacet
  facet normal -0.8700221857972248 0.49301257207156424 0
    outer loop
      vertex 58.20833333581686 68.99918300658464 0.6
      vertex 58.20833333581686 68.99918300658464 0
      vertex 45.94415020942688 47.356506906449795 0.6
    endloop
  endfacet
  facet normal 0.5005029494081519 0.865734831015676 0
    outer loop
      vertex 31.75 55.5625 0
      vertex 31.75 55.5625 0.6
      vertex 45.94415020942688 47.356506906449795 0
    endloop
  endfacet
  facet normal 0.5005029494081519 0.865734831015676 0
    outer loop
      vertex 45.94415020942688 47.356506906449795 0.6
      vertex 45.94415020942688 47.356506906449795 0
      vertex 31.75 55.5625 0.6
    endloop
  endfacet
  facet normal 1 0 0
    outer loop
      vertex 31.75 120.82638888806105 0
      vertex 31.75 120.82638888806105 0.6
      vertex 31.75 55.5625 0
    endloop
  endfacet
  facet normal 1 0 0
    outer loop
      vertex 31.75 55.5625 0.6
      vertex 31.75 55.5625 0
      vertex 31.75 120.82638888806105 0.6
    endloop
  endfacet
  facet normal 0.5005029492539148 -0.8657348311048442 0
    outer loop
      vertex 88.19444444775581 153.45833333581686 0
      vertex 88.19444444775581 153.45833333581686 0.6
      vertex 31.75 120.82638888806105 0
    endloop
  endfacet
  facet normal 0.5005029492539148 -0.8657348311048442 0
    outer loop
      vertex 31.75 120.82638888806105 0.6
      vertex 31.75 120.82638888806105 0
      vertex 88.19444444775581 153.45833333581686 0.6
    endloop
  endfacet
  facet normal -0.5005029493034309 -0.8657348310762178 0
    outer loop
      vertex 144.63888888806105 120.82638888806105 0
      vertex 144.63888888806105 120.82638888806105 0.6
      vertex 88.19444444775581 153.45833333581686 0
    endloop
  endfacet
  facet normal -0.5005029493034309 -0.8657348310762178 0
    outer loop
      vertex 88.19444444775581 153.45833333581686 0.6
      vertex 88.19444444775581 153.45833333581686 0
      vertex 144.63888888806105 120.82638888806105 0.6
    endloop
  endfacet
  facet normal -1 0 0
    outer loop
      vertex 144.63888888806105 55.5625 0
      vertex 144.63888888806105 55.5625 0.6
      vertex 144.63888888806105 120.82638888806105 0
    endloop
  endfacet
  facet normal -1 0 0
    outer loop
      vertex 144.63888888806105 120.82638888806105 0.6
      vertex 144.63888888806105 120.82638888806105 0
      vertex 144.63888888806105 55.5625 0.6
    endloop
  endfacet
  facet normal -0.5005029492112467 0.8657348311295118 0
    outer loop
      vertex 130.4447386711836 47.356506906449795 0
      vertex 130.4447386711836 47.356506906449795 0.6
      vertex 144.63888888806105 55.5625 0
    endloop
  endfacet
  facet normal -0.5005029492112467 0.8657348311295118 0
    outer loop
      vertex 144.63888888806105 55.5625 0.6
      vertex 144.63888888806105 55.5625 0
      vertex 130.4447386711836 47.356506906449795 0.6
    endloop
  endfacet
  facet normal 0.8700221859256937 0.49301257184485453 0
    outer loop
      vertex 118.18055555224419 68.99918300658464 0
      vertex 118.18055555224419 68.99918300658464 0.6
      vertex 130.4447386711836 47.356506906449795 0
    endloop
  endfacet
  facet normal 0.8700221859256937 0.49301257184485453 0
    outer loop
      vertex 130.4447386711836 47.356506906449795 0.6
      vertex 130.4447386711836 47.356506906449795 0
      vertex 118.18055555224419 68.99918300658464 0.6
    endloop
  endfacet
  facet normal 0.5087293121043653 0.8609265282274785 -1.609226706048451e-15
    outer loop
      vertex 89.95833333581686 149.9305555522442 0
      vertex 128.76388888806105 127 0.6
      vertex 128.76388888806105 127 0
    endloop
  endfacet
  facet normal 0.5087293121043653 0.8609265282274785 0
    outer loop
      vertex 89.95833333581686 149.9305555522442 0
      vertex 89.95833333581686 149.9305555522442 0.6
      vertex 128.76388888806105 127 0.6
    endloop
  endfacet
  facet normal -0.8320502937971452 0.5547001970362768 -7.273711765773731e-17
    outer loop
      vertex 86.43055555224419 144.63888888806105 0
      vertex 89.95833333581686 149.9305555522442 0.6
      vertex 89.95833333581686 149.9305555522442 0
    endloop
  endfacet
  facet normal -0.8320502937971452 0.5547001970362768 0
    outer loop
      vertex 86.43055555224419 144.63888888806105 0
      vertex 86.43055555224419 144.63888888806105 0.6
      vertex 89.95833333581686 149.9305555522442 0.6
    endloop
  endfacet
  facet normal -0.5087293120319692 -0.8609265282702581 -1.1412373066780764e-15
    outer loop
      vertex 125.23611111193895 121.70833333581686 0
      vertex 86.43055555224419 144.63888888806105 0.6
      vertex 86.43055555224419 144.63888888806105 0
    endloop
  endfacet
  facet normal -0.5087293120319692 -0.8609265282702581 0
    outer loop
      vertex 125.23611111193895 121.70833333581686 0
      vertex 125.23611111193895 121.70833333581686 0.6
      vertex 86.43055555224419 144.63888888806105 0.6
    endloop
  endfacet
  facet normal 0.8320502943378436 -0.5547001962252291 -3.782330120660244e-16
    outer loop
      vertex 128.76388888806105 127 0
      vertex 125.23611111193895 121.70833333581686 0.6
      vertex 125.23611111193895 121.70833333581686 0
    endloop
  endfacet
  facet normal 0.8320502943378436 -0.5547001962252291 0
    outer loop
      vertex 128.76388888806105 127 0
      vertex 128.76388888806105 127 0.6
      vertex 125.23611111193895 121.70833333581686 0.6
    endloop
  endfacet
  facet normal 0 1 0
    outer loop
      vertex 35.27777777612209 116.41666666418314 0
      vertex 42.33333333581686 116.41666666418314 0.6
      vertex 42.33333333581686 116.41666666418314 0
    endloop
  endfacet
  facet normal 0 1 0
    outer loop
      vertex 35.27777777612209 116.41666666418314 0
      vertex 35.27777777612209 116.41666666418314 0.6
      vertex 42.33333333581686 116.41666666418314 0.6
    endloop
  endfacet
  facet normal -1 0 0
    outer loop
      vertex 35.27777777612209 59.97222222387791 0
      vertex 35.27777777612209 116.41666666418314 0.6
      vertex 35.27777777612209 116.41666666418314 0
    endloop
  endfacet
  facet normal -1 0 0
    outer loop
      vertex 35.27777777612209 59.97222222387791 0
      vertex 35.27777777612209 59.97222222387791 0.6
      vertex 35.27777777612209 116.41666666418314 0.6
    endloop
  endfacet
  facet normal 0 -1 0
    outer loop
      vertex 42.33333333581686 59.97222222387791 0
      vertex 35.27777777612209 59.97222222387791 0.6
      vertex 35.27777777612209 59.97222222387791 0
    endloop
  endfacet
  facet normal 0 -1 0
    outer loop
      vertex 42.33333333581686 59.97222222387791 0
      vertex 42.33333333581686 59.97222222387791 0.6
      vertex 35.27777777612209 59.97222222387791 0.6
    endloop
  endfacet
  facet normal 1 0 0
    outer loop
      vertex 42.33333333581686 116.41666666418314 0
      vertex 42.33333333581686 59.97222222387791 0.6
      vertex 42.33333333581686 59.97222222387791 0
    endloop
  endfacet
  facet normal 1 0 0
    outer loop
      vertex 42.33333333581686 116.41666666418314 0
      vertex 42.33333333581686 116.41666666418314 0.6
      vertex 42.33333333581686 59.97222222387791 0.6
    endloop
  endfacet
  facet normal 0 -1 0
    outer loop
      vertex 107.32585470378399 44.09722222387791 0
      vertex 107.32585470378399 44.09722222387791 0.6
      vertex 51.58183182775974 44.09722222387791 0
    endloop
  endfacet
  facet normal 0 -1 0
    outer loop
      vertex 51.58183182775974 44.09722222387791 0.6
      vertex 51.58183182775974 44.09722222387791 0
      vertex 107.32585470378399 44.09722222387791 0.6
    endloop
  endfacet
  facet normal -0.5087293120645873 0.8609265282509838 0
    outer loop
      vertex 86.43055555224419 31.75 0
      vertex 86.43055555224419 31.75 0.6
      vertex 107.32585470378399 44.09722222387791 0
    endloop
  endfacet
  facet normal -0.5087293120645873 0.8609265282509838 0
    outer loop
      vertex 107.32585470378399 44.09722222387791 0.6
      vertex 107.32585470378399 44.09722222387791 0
      vertex 86.43055555224419 31.75 0.6
    endloop
  endfacet
  facet normal -0.8320502937971452 -0.5547001970362768 0
    outer loop
      vertex 89.95833333581686 26.45833333581686 0
      vertex 89.95833333581686 26.45833333581686 0.6
      vertex 86.43055555224419 31.75 0
    endloop
  endfacet
  facet normal -0.8320502937971452 -0.5547001970362768 0
    outer loop
      vertex 86.43055555224419 31.75 0.6
      vertex 86.43055555224419 31.75 0
      vertex 89.95833333581686 26.45833333581686 0.6
    endloop
  endfacet
  facet normal 0.5087293120904429 -0.8609265282357054 0
    outer loop
      vertex 119.80876068770885 44.09722222387791 0
      vertex 119.80876068770885 44.09722222387791 0.6
      vertex 89.95833333581686 26.45833333581686 0
    endloop
  endfacet
  facet normal 0.5087293120904429 -0.8609265282357054 0
    outer loop
      vertex 89.95833333581686 26.45833333581686 0.6
      vertex 89.95833333581686 26.45833333581686 0
      vertex 119.80876068770885 44.09722222387791 0.6
    endloop
  endfacet
  facet normal 0 -1 0
    outer loop
      vertex 124.8070570603013 44.09722222387791 0
      vertex 124.8070570603013 44.09722222387791 0.6
      vertex 119.80876068770885 44.09722222387791 0
    endloop
  endfacet
  facet normal 0 -1 0
    outer loop
      vertex 119.80876068770885 44.09722222387791 0.6
      vertex 119.80876068770885 44.09722222387791 0
      vertex 124.8070570603013 44.09722222387791 0.6
    endloop
  endfacet
  facet normal -0.5005029493265717 0.8657348310628394 0
    outer loop
      vertex 88.19444444775581 22.930555552244186 0
      vertex 88.19444444775581 22.930555552244186 0.6
      vertex 124.8070570603013 44.09722222387791 0
    endloop
  endfacet
  facet normal -0.5005029493265717 0.8657348310628394 0
    outer loop
      vertex 124.8070570603013 44.09722222387791 0.6
      vertex 124.8070570603013 44.09722222387791 0
      vertex 88.19444444775581 22.930555552244186 0.6
    endloop
  endfacet
  facet normal 0.5005029492502345 0.8657348311069719 0
    outer loop
      vertex 51.58183182775974 44.09722222387791 0
      vertex 51.58183182775974 44.09722222387791 0.6
      vertex 88.19444444775581 22.930555552244186 0
    endloop
  endfacet
  facet normal 0.5005029492502345 0.8657348311069719 0
    outer loop
      vertex 88.19444444775581 22.930555552244186 0.6
      vertex 88.19444444775581 22.930555552244186 0
      vertex 51.58183182775974 44.09722222387791 0.6
    endloop
  endfacet
  facet normal 0 0 1
    outer loop
      vertex 107.32585470378399 44.09722222387791 0.6
      vertex 86.43055555224419 31.75 0.6
      vertex 89.95833333581686 26.45833333581686 0.6
    endloop
  endfacet
  facet normal 0 0 1
    outer loop
      vertex 107.32585470378399 44.09722222387791 0.6
      vertex 89.95833333581686 26.45833333581686 0.6
      vertex 119.80876068770885 44.09722222387791 0.6
    endloop
  endfacet
  facet normal 0 0 1
    outer loop
      vertex 118.18055555224419 68.99918300658464 0.6
      vertex 118.18055555224419 74.08333333581686 0.6
      vertex 115.29953703284264 74.08333333581686 0.6
    endloop
  endfacet
  facet normal 0 0 1
    outer loop
      vertex 102.30555555224419 118.18055555224419 0.6
      vertex 109.36111111193895 118.18055555224419 0.6
      vertex 109.36111111193895 128.76388888806105 0.6
    endloop
  endfacet
  facet normal 0 0 1
    outer loop
      vertex 67.0277777761221 128.76388888806105 0.6
      vertex 67.0277777761221 118.18055555224419 0.6
      vertex 74.08333333581686 118.18055555224419 0.6
    endloop
  endfacet
  facet normal 0 0 1
    outer loop
      vertex 61.08935185521841 74.08333333581686 0.6
      vertex 58.20833333581686 74.08333333581686 0.6
      vertex 58.20833333581686 68.99918300658464 0.6
    endloop
  endfacet
  facet normal 0 0 1
    outer loop
      vertex 156.98611111193895 48.506944447755814 0.6
      vertex 156.98611111193895 127.88194444775581 0.6
      vertex 144.63888888806105 120.82638888806105 0.6
    endloop
  endfacet
  facet normal 0 0 1
    outer loop
      vertex 156.98611111193895 48.506944447755814 0.6
      vertex 144.63888888806105 120.82638888806105 0.6
      vertex 144.63888888806105 55.5625 0.6
    endloop
  endfacet
  facet normal 0 0 1
    outer loop
      vertex 156.98611111193895 48.506944447755814 0.6
      vertex 144.63888888806105 55.5625 0.6
      vertex 130.4447386711836 47.356506906449795 0.6
    endloop
  endfacet
  facet normal 0 0 1
    outer loop
      vertex 124.8070570603013 44.09722222387791 0.6
      vertex 156.98611111193895 48.506944447755814 0.6
      vertex 130.4447386711836 47.356506906449795 0.6
    endloop
  endfacet
  facet normal 0 0 1
    outer loop
      vertex 124.8070570603013 44.09722222387791 0.6
      vertex 130.4447386711836 47.356506906449795 0.6
      vertex 118.18055555224419 68.99918300658464 0.6
    endloop
  endfacet
  facet normal 0 0 1
    outer loop
      vertex 119.80876068770885 44.09722222387791 0.6
      vertex 124.8070570603013 44.09722222387791 0.6
      vertex 118.18055555224419 68.99918300658464 0.6
    endloop
  endfacet
  facet normal 0 0 1
    outer loop
      vertex 107.32585470378399 44.09722222387791 0.6
      vertex 119.80876068770885 44.09722222387791 0.6
      vertex 118.18055555224419 68.99918300658464 0.6
    endloop
  endfacet
  facet normal 0 0 1
    outer loop
      vertex 51.58183182775974 44.09722222387791 0.6
      vertex 107.32585470378399 44.09722222387791 0.6
      vertex 118.18055555224419 68.99918300658464 0.6
    endloop
  endfacet
  facet normal 0 0 1
    outer loop
      vertex 51.58183182775974 44.09722222387791 0.6
      vertex 118.18055555224419 68.99918300658464 0.6
      vertex 115.29953703284264 74.08333333581686 0.6
    endloop
  endfacet
  facet normal 0 0 1
    outer loop
      vertex 88.19444444775581 8.819444447755814 0.6
      vertex 156.98611111193895 48.506944447755814 0.6
      vertex 124.8070570603013 44.09722222387791 0.6
    endloop
  endfacet
  facet normal 0 0 1
    outer loop
      vertex 88.19444444775581 8.819444447755814 0.6
      vertex 124.8070570603013 44.09722222387791 0.6
      vertex 88.19444444775581 22.930555552244186 0.6
    endloop
  endfacet
  facet normal 0 0 1
    outer loop
      vertex 88.19444444775581 8.819444447755814 0.6
      vertex 88.19444444775581 22.930555552244186 0.6
      vertex 51.58183182775974 44.09722222387791 0.6
    endloop
  endfacet
  facet normal 0 0 1
    outer loop
      vertex 102.30555555224419 118.18055555224419 0.6
      vertex 109.36111111193895 128.76388888806105 0.6
      vertex 67.0277777761221 128.76388888806105 0.6
    endloop
  endfacet
  facet normal 0 0 1
    outer loop
      vertex 102.30555555224419 118.18055555224419 0.6
      vertex 67.0277777761221 128.76388888806105 0.6
      vertex 74.08333333581686 118.18055555224419 0.6
    endloop
  endfacet
  facet normal 0 0 1
    outer loop
      vertex 102.30555555224419 97.01388888806105 0.6
      vertex 102.30555555224419 118.18055555224419 0.6
      vertex 74.08333333581686 118.18055555224419 0.6
    endloop
  endfacet
  facet normal 0 0 1
    outer loop
      vertex 102.30555555224419 97.01388888806105 0.6
      vertex 74.08333333581686 118.18055555224419 0.6
      vertex 74.08333333581686 97.01388888806105 0.6
    endloop
  endfacet
  facet normal 0 0 1
    outer loop
      vertex 115.29953703284264 74.08333333581686 0.6
      vertex 102.30555555224419 97.01388888806105 0.6
      vertex 74.08333333581686 97.01388888806105 0.6
    endloop
  endfacet
  facet normal 0 0 1
    outer loop
      vertex 115.29953703284264 74.08333333581686 0.6
      vertex 74.08333333581686 97.01388888806105 0.6
      vertex 61.08935185521841 74.08333333581686 0.6
    endloop
  endfacet
  facet normal 0 0 1
    outer loop
      vertex 115.29953703284264 74.08333333581686 0.6
      vertex 61.08935185521841 74.08333333581686 0.6
      vertex 58.20833333581686 68.99918300658464 0.6
    endloop
  endfacet
  facet normal 0 0 1
    outer loop
      vertex 51.58183182775974 44.09722222387791 0.6
      vertex 115.29953703284264 74.08333333581686 0.6
      vertex 58.20833333581686 68.99918300658464 0.6
    endloop
  endfacet
  facet normal 0 0 1
    outer loop
      vertex 51.58183182775974 44.09722222387791 0.6
      vertex 58.20833333581686 68.99918300658464 0.6
      vertex 45.94415020942688 47.356506906449795 0.6
    endloop
  endfacet
  facet normal 0 0 1
    outer loop
      vertex 19.402777776122093 48.506944447755814 0.6
      vertex 88.19444444775581 8.819444447755814 0.6
      vertex 51.58183182775974 44.09722222387791 0.6
    endloop
  endfacet
  facet normal 0 0 1
    outer loop
      vertex 19.402777776122093 48.506944447755814 0.6
      vertex 51.58183182775974 44.09722222387791 0.6
      vertex 45.94415020942688 47.356506906449795 0.6
    endloop
  endfacet
  facet normal 0 0 1
    outer loop
      vertex 19.402777776122093 48.506944447755814 0.6
      vertex 45.94415020942688 47.356506906449795 0.6
      vertex 31.75 55.5625 0.6
    endloop
  endfacet
  facet normal 0 0 1
    outer loop
      vertex 19.402777776122093 127.88194444775581 0.6
      vertex 19.402777776122093 48.506944447755814 0.6
      vertex 31.75 55.5625 0.6
    endloop
  endfacet
  facet normal 0 0 1
    outer loop
      vertex 19.402777776122093 127.88194444775581 0.6
      vertex 31.75 55.5625 0.6
      vertex 31.75 120.82638888806105 0.6
    endloop
  endfacet
  facet normal 0 0 1
    outer loop
      vertex 88.19444444775581 167.5694444477558 0.6
      vertex 19.402777776122093 127.88194444775581 0.6
      vertex 31.75 120.82638888806105 0.6
    endloop
  endfacet
  facet normal 0 0 1
    outer loop
      vertex 88.19444444775581 167.5694444477558 0.6
      vertex 31.75 120.82638888806105 0.6
      vertex 88.19444444775581 153.45833333581686 0.6
    endloop
  endfacet
  facet normal 0 0 1
    outer loop
      vertex 156.98611111193895 127.88194444775581 0.6
      vertex 88.19444444775581 167.5694444477558 0.6
      vertex 88.19444444775581 153.45833333581686 0.6
    endloop
  endfacet
  facet normal 0 0 1
    outer loop
      vertex 156.98611111193895 127.88194444775581 0.6
      vertex 88.19444444775581 153.45833333581686 0.6
      vertex 144.63888888806105 120.82638888806105 0.6
    endloop
  endfacet
  facet normal 0 0 1
    outer loop
      vertex 125.23611111193895 121.70833333581686 0.6
      vertex 128.76388888806105 127 0.6
      vertex 89.95833333581686 149.9305555522442 0.6
    endloop
  endfacet
  facet normal 0 0 1
    outer loop
      vertex 86.43055555224419 144.63888888806105 0.6
      vertex 125.23611111193895 121.70833333581686 0.6
      vertex 89.95833333581686 149.9305555522442 0.6
    endloop
  endfacet
  facet normal 0 0 1
    outer loop
      vertex 42.33333333581686 59.97222222387791 0.6
      vertex 42.33333333581686 116.41666666418314 0.6
      vertex 35.27777777612209 116.41666666418314 0.6
    endloop
  endfacet
  facet normal 0 0 1
    outer loop
      vertex 42.33333333581686 59.97222222387791 0.6
      vertex 35.27777777612209 116.41666666418314 0.6
      vertex 35.27777777612209 59.97222222387791 0.6
    endloop
  endfacet
  facet normal 0 0 -1
    outer loop
      vertex 89.95833333581686 26.45833333581686 0
      vertex 86.43055555224419 31.75 0
      vertex 107.32585470378399 44.09722222387791 0
    endloop
  endfacet
  facet normal 0 0 -1
    outer loop
      vertex 119.80876068770885 44.09722222387791 0
      vertex 89.95833333581686 26.45833333581686 0
      vertex 107.32585470378399 44.09722222387791 0
    endloop
  endfacet
  facet normal 0 0 -1
    outer loop
      vertex 115.29953703284264 74.08333333581686 0
      vertex 118.18055555224419 74.08333333581686 0
      vertex 118.18055555224419 68.99918300658464 0
    endloop
  endfacet
  facet normal 0 0 -1
    outer loop
      vertex 109.36111111193895 128.76388888806105 0
      vertex 109.36111111193895 118.18055555224419 0
      vertex 102.30555555224419 118.18055555224419 0
    endloop
  endfacet
  facet normal 0 0 -1
    outer loop
      vertex 74.08333333581686 118.18055555224419 0
      vertex 67.0277777761221 118.18055555224419 0
      vertex 67.0277777761221 128.76388888806105 0
    endloop
  endfacet
  facet normal 0 0 -1
    outer loop
      vertex 58.20833333581686 68.99918300658464 0
      vertex 58.20833333581686 74.08333333581686 0
      vertex 61.08935185521841 74.08333333581686 0
    endloop
  endfacet
  facet normal 0 0 -1
    outer loop
      vertex 144.63888888806105 120.82638888806105 0
      vertex 156.98611111193895 127.88194444775581 0
      vertex 156.98611111193895 48.506944447755814 0
    endloop
  endfacet
  facet normal 0 0 -1
    outer loop
      vertex 144.63888888806105 55.5625 0
      vertex 144.63888888806105 120.82638888806105 0
      vertex 156.98611111193895 48.506944447755814 0
    endloop
  endfacet
  facet normal 0 0 -1
    outer loop
      vertex 130.4447386711836 47.356506906449795 0
      vertex 144.63888888806105 55.5625 0
      vertex 156.98611111193895 48.506944447755814 0
    endloop
  endfacet
  facet normal 0 0 -1
    outer loop
      vertex 130.4447386711836 47.356506906449795 0
      vertex 156.98611111193895 48.506944447755814 0
      vertex 124.8070570603013 44.09722222387791 0
    endloop
  endfacet
  facet normal 0 0 -1
    outer loop
      vertex 118.18055555224419 68.99918300658464 0
      vertex 130.4447386711836 47.356506906449795 0
      vertex 124.8070570603013 44.09722222387791 0
    endloop
  endfacet
  facet normal 0 0 -1
    outer loop
      vertex 118.18055555224419 68.99918300658464 0
      vertex 124.8070570603013 44.09722222387791 0
      vertex 119.80876068770885 44.09722222387791 0
    endloop
  endfacet
  facet normal 0 0 -1
    outer loop
      vertex 118.18055555224419 68.99918300658464 0
      vertex 119.80876068770885 44.09722222387791 0
      vertex 107.32585470378399 44.09722222387791 0
    endloop
  endfacet
  facet normal 0 0 -1
    outer loop
      vertex 118.18055555224419 68.99918300658464 0
      vertex 107.32585470378399 44.09722222387791 0
      vertex 51.58183182775974 44.09722222387791 0
    endloop
  endfacet
  facet normal 0 0 -1
    outer loop
      vertex 115.29953703284264 74.08333333581686 0
      vertex 118.18055555224419 68.99918300658464 0
      vertex 51.58183182775974 44.09722222387791 0
    endloop
  endfacet
  facet normal 0 0 -1
    outer loop
      vertex 124.8070570603013 44.09722222387791 0
      vertex 156.98611111193895 48.506944447755814 0
      vertex 88.19444444775581 8.819444447755814 0
    endloop
  endfacet
  facet normal 0 0 -1
    outer loop
      vertex 88.19444444775581 22.930555552244186 0
      vertex 124.8070570603013 44.09722222387791 0
      vertex 88.19444444775581 8.819444447755814 0
    endloop
  endfacet
  facet normal 0 0 -1
    outer loop
      vertex 51.58183182775974 44.09722222387791 0
      vertex 88.19444444775581 22.930555552244186 0
      vertex 88.19444444775581 8.819444447755814 0
    endloop
  endfacet
  facet normal 0 0 -1
    outer loop
      vertex 67.0277777761221 128.76388888806105 0
      vertex 109.36111111193895 128.76388888806105 0
      vertex 102.30555555224419 118.18055555224419 0
    endloop
  endfacet
  facet normal 0 0 -1
    outer loop
      vertex 74.08333333581686 118.18055555224419 0
      vertex 67.0277777761221 128.76388888806105 0
      vertex 102.30555555224419 118.18055555224419 0
    endloop
  endfacet
  facet normal 0 0 -1
    outer loop
      vertex 74.08333333581686 118.18055555224419 0
      vertex 102.30555555224419 118.18055555224419 0
      vertex 102.30555555224419 97.01388888806105 0
    endloop
  endfacet
  facet normal 0 0 -1
    outer loop
      vertex 74.08333333581686 97.01388888806105 0
      vertex 74.08333333581686 118.18055555224419 0
      vertex 102.30555555224419 97.01388888806105 0
    endloop
  endfacet
  facet normal 0 0 -1
    outer loop
      vertex 74.08333333581686 97.01388888806105 0
      vertex 102.30555555224419 97.01388888806105 0
      vertex 115.29953703284264 74.08333333581686 0
    endloop
  endfacet
  facet normal 0 0 -1
    outer loop
      vertex 61.08935185521841 74.08333333581686 0
      vertex 74.08333333581686 97.01388888806105 0
      vertex 115.29953703284264 74.08333333581686 0
    endloop
  endfacet
  facet normal 0 0 -1
    outer loop
      vertex 58.20833333581686 68.99918300658464 0
      vertex 61.08935185521841 74.08333333581686 0
      vertex 115.29953703284264 74.08333333581686 0
    endloop
  endfacet
  facet normal 0 0 -1
    outer loop
      vertex 58.20833333581686 68.99918300658464 0
      vertex 115.29953703284264 74.08333333581686 0
      vertex 51.58183182775974 44.09722222387791 0
    endloop
  endfacet
  facet normal 0 0 -1
    outer loop
      vertex 45.94415020942688 47.356506906449795 0
      vertex 58.20833333581686 68.99918300658464 0
      vertex 51.58183182775974 44.09722222387791 0
    endloop
  endfacet
  facet normal 0 0 -1
    outer loop
      vertex 51.58183182775974 44.09722222387791 0
      vertex 88.19444444775581 8.819444447755814 0
      vertex 19.402777776122093 48.506944447755814 0
    endloop
  endfacet
  facet normal 0 0 -1
    outer loop
      vertex 45.94415020942688 47.356506906449795 0
      vertex 51.58183182775974 44.09722222387791 0
      vertex 19.402777776122093 48.506944447755814 0
    endloop
  endfacet
  facet normal 0 0 -1
    outer loop
      vertex 31.75 55.5625 0
      vertex 45.94415020942688 47.356506906449795 0
      vertex 19.402777776122093 48.506944447755814 0
    endloop
  endfacet
  facet normal 0 0 -1
    outer loop
      vertex 31.75 55.5625 0
      vertex 19.402777776122093 48.506944447755814 0
      vertex 19.402777776122093 127.88194444775581 0
    endloop
  endfacet
  facet normal 0 0 -1
    outer loop
      vertex 31.75 120.82638888806105 0
      vertex 31.75 55.5625 0
      vertex 19.402777776122093 127.88194444775581 0
    endloop
  endfacet
  facet normal 0 0 -1
    outer loop
      vertex 31.75 120.82638888806105 0
      vertex 19.402777776122093 127.88194444775581 0
      vertex 88.19444444775581 167.5694444477558 0
    endloop
  endfacet
  facet normal 0 0 -1
    outer loop
      vertex 88.19444444775581 153.45833333581686 0
      vertex 31.75 120.82638888806105 0
      vertex 88.19444444775581 167.5694444477558 0
    endloop
  endfacet
  facet normal 0 0 -1
    outer loop
      vertex 88.19444444775581 153.45833333581686 0
      vertex 88.19444444775581 167.5694444477558 0
      vertex 156.98611111193895 127.88194444775581 0
    endloop
  endfacet
  facet normal 0 0 -1
    outer loop
      vertex 144.63888888806105 120.82638888806105 0
      vertex 88.19444444775581 153.45833333581686 0
      vertex 156.98611111193895 127.88194444775581 0
    endloop
  endfacet
  facet normal 0 0 -1
    outer loop
      vertex 89.95833333581686 149.9305555522442 0
      vertex 128.76388888806105 127 0
      vertex 125.23611111193895 121.70833333581686 0
    endloop
  endfacet
  facet normal 0 0 -1
    outer loop
      vertex 89.95833333581686 149.9305555522442 0
      vertex 125.23611111193895 121.70833333581686 0
      vertex 86.43055555224419 144.63888888806105 0
    endloop
  endfacet
  facet normal 0 0 -1
    outer loop
      vertex 35.27777777612209 116.41666666418314 0
      vertex 42.33333333581686 116.41666666418314 0
      vertex 42.33333333581686 59.97222222387791 0
    endloop
  endfacet
  facet normal 0 0 -1
    outer loop
      vertex 35.27777777612209 59.97222222387791 0
      vertex 35.27777777612209 116.41666666418314 0
      vertex 42.33333333581686 59.97222222387791 0
    endloop
  endfacet
endsolid OpenSCAD_Model
