solid OpenSCAD_Model
  facet normal 1 0 0
    outer loop
      vertex 31.397222220897675 25.576388888061047 0
      vertex 31.397222220897675 9.701388888061047 0.6
      vertex 31.397222220897675 9.701388888061047 0
    endloop
  endfacet
  facet normal 1 0 0
    outer loop
      vertex 31.397222220897675 25.576388888061047 0
      vertex 31.397222220897675 25.576388888061047 0.6
      vertex 31.397222220897675 9.701388888061047 0.6
    endloop
  endfacet
  facet normal 0.499722453503113 0.8661855860407912 0
    outer loop
      vertex 17.638888888061047 33.51388888806105 0
      vertex 31.397222220897675 25.576388888061047 0.6
      vertex 31.397222220897675 25.576388888061047 0
    endloop
  endfacet
  facet normal 0.499722453503113 0.8661855860407912 0
    outer loop
      vertex 17.638888888061047 33.51388888806105 0
      vertex 17.638888888061047 33.51388888806105 0.6
      vertex 31.397222220897675 25.576388888061047 0.6
    endloop
  endfacet
  facet normal -0.499722453503113 0.8661855860407912 0
    outer loop
      vertex 3.8805555552244186 25.576388888061047 0
      vertex 17.638888888061047 33.51388888806105 0.6
      vertex 17.638888888061047 33.51388888806105 0
    endloop
  endfacet
  facet normal -0.499722453503113 0.8661855860407912 0
    outer loop
      vertex 3.8805555552244186 25.576388888061047 0
      vertex 3.8805555552244186 25.576388888061047 0.6
      vertex 17.638888888061047 33.51388888806105 0.6
    endloop
  endfacet
  facet normal -1 0 0
    outer loop
      vertex 3.8805555552244186 9.701388888061047 0
      vertex 3.8805555552244186 25.576388888061047 0.6
      vertex 3.8805555552244186 25.576388888061047 0
    endloop
  endfacet
  facet normal -1 0 0
    outer loop
      vertex 3.8805555552244186 9.701388888061047 0
      vertex 3.8805555552244186 9.701388888061047 0.6
      vertex 3.8805555552244186 25.576388888061047 0.6
    endloop
  endfacet
  facet normal -0.499722453503113 -0.8661855860407912 0
    outer loop
      vertex 17.638888888061047 1.7638888880610466 0
      vertex 3.8805555552244186 9.701388888061047 0.6
      vertex 3.8805555552244186 9.701388888061047 0
    endloop
  endfacet
  facet normal -0.499722453503113 -0.8661855860407912 0
    outer loop
      vertex 17.638888888061047 1.7638888880610466 0
      vertex 17.638888888061047 1.7638888880610466 0.6
      vertex 3.8805555552244186 9.701388888061047 0.6
    endloop
  endfacet
  facet normal 0.499722453503113 -0.8661855860407912 0
    outer loop
      vertex 31.397222220897675 9.701388888061047 0
      vertex 17.638888888061047 1.7638888880610466 0.6
      vertex 17.638888888061047 1.7638888880610466 0
    endloop
  endfacet
  facet normal 0.499722453503113 -0.8661855860407912 0
    outer loop
      vertex 31.397222220897675 9.701388888061047 0
      vertex 31.397222220897675 9.701388888061047 0.6
      vertex 17.638888888061047 1.7638888880610466 0.6
    endloop
  endfacet
  facet normal 0.2588190659723451 -0.9659258206970156 0
    outer loop
      vertex 19.996869765222073 24.7369946539402 0
      vertex 19.996869765222073 24.7369946539402 0.6
      vertex 19.878073990345 24.705163419246674 0
    endloop
  endfacet
  facet normal 0.2588190659723451 -0.9659258206970156 0
    outer loop
      vertex 19.878073990345 24.705163419246674 0.6
      vertex 19.878073990345 24.705163419246674 0
      vertex 19.996869765222073 24.7369946539402 0.6
    endloop
  endfacet
  facet normal 0.42261821063360516 -0.9063078108682777 0
    outer loop
      vertex 20.108333334326744 24.788970962166786 0
      vertex 20.108333334326744 24.788970962166786 0.6
      vertex 19.996869765222073 24.7369946539402 0
    endloop
  endfacet
  facet normal 0.42261821063360516 -0.9063078108682777 0
    outer loop
      vertex 19.996869765222073 24.7369946539402 0.6
      vertex 19.996869765222073 24.7369946539402 0
      vertex 20.108333334326744 24.788970962166786 0.6
    endloop
  endfacet
  facet normal 0.5735764659652496 -0.8191520235529026 0
    outer loop
      vertex 20.209077924489975 24.859513089060783 0
      vertex 20.209077924489975 24.859513089060783 0.6
      vertex 20.108333334326744 24.788970962166786 0
    endloop
  endfacet
  facet normal 0.5735764659652496 -0.8191520235529026 0
    outer loop
      vertex 20.108333334326744 24.788970962166786 0.6
      vertex 20.108333334326744 24.788970962166786 0
      vertex 20.209077924489975 24.859513089060783 0.6
    endloop
  endfacet
  facet normal 0.7071067811865476 -0.7071067811865476 0
    outer loop
      vertex 20.29604246467352 24.946477629244328 0
      vertex 20.29604246467352 24.946477629244328 0.6
      vertex 20.209077924489975 24.859513089060783 0
    endloop
  endfacet
  facet normal 0.7071067811865476 -0.7071067811865476 0
    outer loop
      vertex 20.209077924489975 24.859513089060783 0.6
      vertex 20.209077924489975 24.859513089060783 0
      vertex 20.29604246467352 24.946477629244328 0.6
    endloop
  endfacet
  facet normal 0.8191520235529026 -0.5735764659652496 0
    outer loop
      vertex 20.366584591567516 25.04722221940756 0
      vertex 20.366584591567516 25.04722221940756 0.6
      vertex 20.29604246467352 24.946477629244328 0
    endloop
  endfacet
  facet normal 0.8191520235529026 -0.5735764659652496 0
    outer loop
      vertex 20.29604246467352 24.946477629244328 0.6
      vertex 20.29604246467352 24.946477629244328 0
      vertex 20.366584591567516 25.04722221940756 0.6
    endloop
  endfacet
  facet normal 0.9063077876645992 -0.422618260394058 0
    outer loop
      vertex 20.418560907244682 25.15868578851223 0
      vertex 20.418560907244682 25.15868578851223 0.6
      vertex 20.366584591567516 25.04722221940756 0
    endloop
  endfacet
  facet normal 0.9063077876645992 -0.422618260394058 0
    outer loop
      vertex 20.366584591567516 25.04722221940756 0.6
      vertex 20.366584591567516 25.04722221940756 0
      vertex 20.418560907244682 25.15868578851223 0.6
    endloop
  endfacet
  facet normal 0.9659258358421418 -0.2588190094499626 0
    outer loop
      vertex 20.45039213448763 25.2774815633893 0
      vertex 20.45039213448763 25.2774815633893 0.6
      vertex 20.418560907244682 25.15868578851223 0
    endloop
  endfacet
  facet normal 0.9659258358421418 -0.2588190094499626 0
    outer loop
      vertex 20.418560907244682 25.15868578851223 0.6
      vertex 20.418560907244682 25.15868578851223 0
      vertex 20.45039213448763 25.2774815633893 0.6
    endloop
  endfacet
  facet normal 0.9961946947063238 -0.08715578144319625 0
    outer loop
      vertex 20.46111111342907 25.399999998509884 0
      vertex 20.46111111342907 25.399999998509884 0.6
      vertex 20.45039213448763 25.2774815633893 0
    endloop
  endfacet
  facet normal 0.9961946947063238 -0.08715578144319625 0
    outer loop
      vertex 20.45039213448763 25.2774815633893 0.6
      vertex 20.45039213448763 25.2774815633893 0
      vertex 20.46111111342907 25.399999998509884 0.6
    endloop
  endfacet
  facet normal 0.9961946947063238 0.08715578144319625 0
    outer loop
      vertex 20.45039213448763 25.522518433630466 0
      vertex 20.45039213448763 25.522518433630466 0.6
      vertex 20.46111111342907 25.399999998509884 0
    endloop
  endfacet
  facet normal 0.9961946947063238 0.08715578144319625 0
    outer loop
      vertex 20.46111111342907 25.399999998509884 0.6
      vertex 20.46111111342907 25.399999998509884 0
      vertex 20.45039213448763 25.522518433630466 0.6
    endloop
  endfacet
  facet normal 0.9659258399002647 0.2588189943048386 0
    outer loop
      vertex 20.418560907244682 25.64131421595812 0
      vertex 20.418560907244682 25.64131421595812 0.6
      vertex 20.45039213448763 25.522518433630466 0
    endloop
  endfacet
  facet normal 0.9659258399002647 0.2588189943048386 0
    outer loop
      vertex 20.45039213448763 25.522518433630466 0.6
      vertex 20.45039213448763 25.522518433630466 0
      vertex 20.418560907244682 25.64131421595812 0.6
    endloop
  endfacet
  facet normal 0.9063077768445449 0.42261828359773834 0
    outer loop
      vertex 20.366584591567516 25.75277777761221 0
      vertex 20.366584591567516 25.75277777761221 0.6
      vertex 20.418560907244682 25.64131421595812 0
    endloop
  endfacet
  facet normal 0.9063077768445449 0.42261828359773834 0
    outer loop
      vertex 20.418560907244682 25.64131421595812 0.6
      vertex 20.418560907244682 25.64131421595812 0
      vertex 20.366584591567516 25.75277777761221 0.6
    endloop
  endfacet
  facet normal 0.8191520235529026 0.5735764659652496 0
    outer loop
      vertex 20.29604246467352 25.85352236777544 0
      vertex 20.29604246467352 25.85352236777544 0.6
      vertex 20.366584591567516 25.75277777761221 0
    endloop
  endfacet
  facet normal 0.8191520235529026 0.5735764659652496 0
    outer loop
      vertex 20.366584591567516 25.75277777761221 0.6
      vertex 20.366584591567516 25.75277777761221 0
      vertex 20.29604246467352 25.85352236777544 0.6
    endloop
  endfacet
  facet normal 0.7071068114767999 0.7071067508962939 0
    outer loop
      vertex 20.209077924489975 25.940486915409565 0
      vertex 20.209077924489975 25.940486915409565 0.6
      vertex 20.29604246467352 25.85352236777544 0
    endloop
  endfacet
  facet normal 0.7071068114767999 0.7071067508962939 0
    outer loop
      vertex 20.29604246467352 25.85352236777544 0.6
      vertex 20.29604246467352 25.85352236777544 0
      vertex 20.209077924489975 25.940486915409565 0.6
    endloop
  endfacet
  facet normal 0.5735764253151203 0.81915205201643 0
    outer loop
      vertex 20.108333334326744 26.01102903485298 0
      vertex 20.108333334326744 26.01102903485298 0.6
      vertex 20.209077924489975 25.940486915409565 0
    endloop
  endfacet
  facet normal 0.5735764253151203 0.81915205201643 0
    outer loop
      vertex 20.209077924489975 25.940486915409565 0.6
      vertex 20.209077924489975 25.940486915409565 0
      vertex 20.108333334326744 26.01102903485298 0.6
    endloop
  endfacet
  facet normal 0.422618260394058 0.9063077876645992 0
    outer loop
      vertex 19.996869765222073 26.063005350530148 0
      vertex 19.996869765222073 26.063005350530148 0.6
      vertex 20.108333334326744 26.01102903485298 0
    endloop
  endfacet
  facet normal 0.422618260394058 0.9063077876645992 0
    outer loop
      vertex 20.108333334326744 26.01102903485298 0.6
      vertex 20.108333334326744 26.01102903485298 0
      vertex 19.996869765222073 26.063005350530148 0.6
    endloop
  endfacet
  facet normal 0.2588190094499626 0.9659258358421418 0
    outer loop
      vertex 19.878073990345 26.094836577773094 0
      vertex 19.878073990345 26.094836577773094 0.6
      vertex 19.996869765222073 26.063005350530148 0
    endloop
  endfacet
  facet normal 0.2588190094499626 0.9659258358421418 0
    outer loop
      vertex 19.996869765222073 26.063005350530148 0.6
      vertex 19.996869765222073 26.063005350530148 0
      vertex 19.878073990345 26.094836577773094 0.6
    endloop
  endfacet
  facet normal 0.08715578144319625 0.9961946947063238 0
    outer loop
      vertex 19.75555555522442 26.105555556714535 0
      vertex 19.75555555522442 26.105555556714535 0.6
      vertex 19.878073990345 26.094836577773094 0
    endloop
  endfacet
  facet normal 0.08715578144319625 0.9961946947063238 0
    outer loop
      vertex 19.878073990345 26.094836577773094 0.6
      vertex 19.878073990345 26.094836577773094 0
      vertex 19.75555555522442 26.105555556714535 0.6
    endloop
  endfacet
  facet normal 0 1 0
    outer loop
      vertex 15.522222220897675 26.105555556714535 0
      vertex 15.522222220897675 26.105555556714535 0.6
      vertex 19.75555555522442 26.105555556714535 0
    endloop
  endfacet
  facet normal 0 1 0
    outer loop
      vertex 19.75555555522442 26.105555556714535 0.6
      vertex 19.75555555522442 26.105555556714535 0
      vertex 15.522222220897675 26.105555556714535 0.6
    endloop
  endfacet
  facet normal -0.08715578144319625 0.9961946947063238 0
    outer loop
      vertex 15.399703785777092 26.094836577773094 0
      vertex 15.399703785777092 26.094836577773094 0.6
      vertex 15.522222220897675 26.105555556714535 0
    endloop
  endfacet
  facet normal -0.08715578144319625 0.9961946947063238 0
    outer loop
      vertex 15.522222220897675 26.105555556714535 0.6
      vertex 15.522222220897675 26.105555556714535 0
      vertex 15.399703785777092 26.094836577773094 0.6
    endloop
  endfacet
  facet normal -0.2588190094499626 0.9659258358421418 0
    outer loop
      vertex 15.28090801090002 26.063005350530148 0
      vertex 15.28090801090002 26.063005350530148 0.6
      vertex 15.399703785777092 26.094836577773094 0
    endloop
  endfacet
  facet normal -0.2588190094499626 0.9659258358421418 0
    outer loop
      vertex 15.399703785777092 26.094836577773094 0.6
      vertex 15.399703785777092 26.094836577773094 0
      vertex 15.28090801090002 26.063005350530148 0.6
    endloop
  endfacet
  facet normal -0.422618260394058 0.9063077876645992 0
    outer loop
      vertex 15.16944444179535 26.01102903485298 0
      vertex 15.16944444179535 26.01102903485298 0.6
      vertex 15.28090801090002 26.063005350530148 0
    endloop
  endfacet
  facet normal -0.422618260394058 0.9063077876645992 0
    outer loop
      vertex 15.28090801090002 26.063005350530148 0.6
      vertex 15.28090801090002 26.063005350530148 0
      vertex 15.16944444179535 26.01102903485298 0.6
    endloop
  endfacet
  facet normal -0.5735764253151203 0.81915205201643 0
    outer loop
      vertex 15.068699851632118 25.940486915409565 0
      vertex 15.068699851632118 25.940486915409565 0.6
      vertex 15.16944444179535 26.01102903485298 0
    endloop
  endfacet
  facet normal -0.5735764253151203 0.81915205201643 0
    outer loop
      vertex 15.16944444179535 26.01102903485298 0.6
      vertex 15.16944444179535 26.01102903485298 0
      vertex 15.068699851632118 25.940486915409565 0.6
    endloop
  endfacet
  facet normal -0.7071068114767999 0.7071067508962939 0
    outer loop
      vertex 14.981735311448574 25.85352236777544 0
      vertex 14.981735311448574 25.85352236777544 0.6
      vertex 15.068699851632118 25.940486915409565 0
    endloop
  endfacet
  facet normal -0.7071068114767999 0.7071067508962939 0
    outer loop
      vertex 15.068699851632118 25.940486915409565 0.6
      vertex 15.068699851632118 25.940486915409565 0
      vertex 14.981735311448574 25.85352236777544 0.6
    endloop
  endfacet
  facet normal -0.8191520235529026 0.5735764659652496 0
    outer loop
      vertex 14.911193184554577 25.75277777761221 0
      vertex 14.911193184554577 25.75277777761221 0.6
      vertex 14.981735311448574 25.85352236777544 0
    endloop
  endfacet
  facet normal -0.8191520235529026 0.5735764659652496 0
    outer loop
      vertex 14.981735311448574 25.85352236777544 0.6
      vertex 14.981735311448574 25.85352236777544 0
      vertex 14.911193184554577 25.75277777761221 0.6
    endloop
  endfacet
  facet normal -0.9063078000482259 0.42261823383728403 0
    outer loop
      vertex 14.859216876327991 25.64131421595812 0
      vertex 14.859216876327991 25.64131421595812 0.6
      vertex 14.911193184554577 25.75277777761221 0
    endloop
  endfacet
  facet normal -0.9063078000482259 0.42261823383728403 0
    outer loop
      vertex 14.911193184554577 25.75277777761221 0.6
      vertex 14.911193184554577 25.75277777761221 0
      vertex 14.859216876327991 25.64131421595812 0.6
    endloop
  endfacet
  facet normal -0.9659258247551401 0.25881905082721823 0
    outer loop
      vertex 14.827385641634464 25.522518433630466 0
      vertex 14.827385641634464 25.522518433630466 0.6
      vertex 14.859216876327991 25.64131421595812 0
    endloop
  endfacet
  facet normal -0.9659258247551401 0.25881905082721823 0
    outer loop
      vertex 14.859216876327991 25.64131421595812 0.6
      vertex 14.859216876327991 25.64131421595812 0
      vertex 14.827385641634464 25.522518433630466 0.6
    endloop
  endfacet
  facet normal -0.9961946999661717 0.08715572132286664 0
    outer loop
      vertex 14.816666670143604 25.399999998509884 0
      vertex 14.816666670143604 25.399999998509884 0.6
      vertex 14.827385641634464 25.522518433630466 0
    endloop
  endfacet
  facet normal -0.9961946999661717 0.08715572132286664 0
    outer loop
      vertex 14.827385641634464 25.522518433630466 0.6
      vertex 14.827385641634464 25.522518433630466 0
      vertex 14.816666670143604 25.399999998509884 0.6
    endloop
  endfacet
  facet normal -0.9961946999661717 -0.08715572132286664 0
    outer loop
      vertex 14.827385641634464 25.2774815633893 0
      vertex 14.827385641634464 25.2774815633893 0.6
      vertex 14.816666670143604 25.399999998509884 0
    endloop
  endfacet
  facet normal -0.9961946999661717 -0.08715572132286664 0
    outer loop
      vertex 14.816666670143604 25.399999998509884 0.6
      vertex 14.816666670143604 25.399999998509884 0
      vertex 14.827385641634464 25.2774815633893 0.6
    endloop
  endfacet
  facet normal -0.9659258206970156 -0.2588190659723451 0
    outer loop
      vertex 14.859216876327991 25.15868578851223 0
      vertex 14.859216876327991 25.15868578851223 0.6
      vertex 14.827385641634464 25.2774815633893 0
    endloop
  endfacet
  facet normal -0.9659258206970156 -0.2588190659723451 0
    outer loop
      vertex 14.827385641634464 25.2774815633893 0.6
      vertex 14.827385641634464 25.2774815633893 0
      vertex 14.859216876327991 25.15868578851223 0.6
    endloop
  endfacet
  facet normal -0.9063078108682777 -0.42261821063360516 0
    outer loop
      vertex 14.911193184554577 25.04722221940756 0
      vertex 14.911193184554577 25.04722221940756 0.6
      vertex 14.859216876327991 25.15868578851223 0
    endloop
  endfacet
  facet normal -0.9063078108682777 -0.42261821063360516 0
    outer loop
      vertex 14.859216876327991 25.15868578851223 0.6
      vertex 14.859216876327991 25.15868578851223 0
      vertex 14.911193184554577 25.04722221940756 0.6
    endloop
  endfacet
  facet normal -0.8191520235529026 -0.5735764659652496 0
    outer loop
      vertex 14.981735311448574 24.946477629244328 0
      vertex 14.981735311448574 24.946477629244328 0.6
      vertex 14.911193184554577 25.04722221940756 0
    endloop
  endfacet
  facet normal -0.8191520235529026 -0.5735764659652496 0
    outer loop
      vertex 14.911193184554577 25.04722221940756 0.6
      vertex 14.911193184554577 25.04722221940756 0
      vertex 14.981735311448574 24.946477629244328 0.6
    endloop
  endfacet
  facet normal -0.7071067811865476 -0.7071067811865476 0
    outer loop
      vertex 15.068699851632118 24.859513089060783 0
      vertex 15.068699851632118 24.859513089060783 0.6
      vertex 14.981735311448574 24.946477629244328 0
    endloop
  endfacet
  facet normal -0.7071067811865476 -0.7071067811865476 0
    outer loop
      vertex 14.981735311448574 24.946477629244328 0.6
      vertex 14.981735311448574 24.946477629244328 0
      vertex 15.068699851632118 24.859513089060783 0.6
    endloop
  endfacet
  facet normal -0.5735764659652496 -0.8191520235529026 0
    outer loop
      vertex 15.16944444179535 24.788970962166786 0
      vertex 15.16944444179535 24.788970962166786 0.6
      vertex 15.068699851632118 24.859513089060783 0
    endloop
  endfacet
  facet normal -0.5735764659652496 -0.8191520235529026 0
    outer loop
      vertex 15.068699851632118 24.859513089060783 0.6
      vertex 15.068699851632118 24.859513089060783 0
      vertex 15.16944444179535 24.788970962166786 0.6
    endloop
  endfacet
  facet normal -0.42261821063360516 -0.9063078108682777 0
    outer loop
      vertex 15.28090801090002 24.7369946539402 0
      vertex 15.28090801090002 24.7369946539402 0.6
      vertex 15.16944444179535 24.788970962166786 0
    endloop
  endfacet
  facet normal -0.42261821063360516 -0.9063078108682777 0
    outer loop
      vertex 15.16944444179535 24.788970962166786 0.6
      vertex 15.16944444179535 24.788970962166786 0
      vertex 15.28090801090002 24.7369946539402 0.6
    endloop
  endfacet
  facet normal -0.2588190659723451 -0.9659258206970156 0
    outer loop
      vertex 15.399703785777092 24.705163419246674 0
      vertex 15.399703785777092 24.705163419246674 0.6
      vertex 15.28090801090002 24.7369946539402 0
    endloop
  endfacet
  facet normal -0.2588190659723451 -0.9659258206970156 0
    outer loop
      vertex 15.28090801090002 24.7369946539402 0.6
      vertex 15.28090801090002 24.7369946539402 0
      vertex 15.399703785777092 24.705163419246674 0.6
    endloop
  endfacet
  facet normal -0.08715572132286664 -0.9961946999661717 0
    outer loop
      vertex 15.522222220897675 24.694444447755814 0
      vertex 15.522222220897675 24.694444447755814 0.6
      vertex 15.399703785777092 24.705163419246674 0
    endloop
  endfacet
  facet normal -0.08715572132286664 -0.9961946999661717 0
    outer loop
      vertex 15.399703785777092 24.705163419246674 0.6
      vertex 15.399703785777092 24.705163419246674 0
      vertex 15.522222220897675 24.694444447755814 0.6
    endloop
  endfacet
  facet normal 0 -1 0
    outer loop
      vertex 15.875 24.694444447755814 0
      vertex 15.875 24.694444447755814 0.6
      vertex 15.522222220897675 24.694444447755814 0
    endloop
  endfacet
  facet normal 0 -1 0
    outer loop
      vertex 15.522222220897675 24.694444447755814 0.6
      vertex 15.522222220897675 24.694444447755814 0
      vertex 15.875 24.694444447755814 0.6
    endloop
  endfacet
  facet normal -1 0 0
    outer loop
      vertex 15.875 19.402777776122093 0
      vertex 15.875 19.402777776122093 0.6
      vertex 15.875 24.694444447755814 0
    endloop
  endfacet
  facet normal -1 0 0
    outer loop
      vertex 15.875 24.694444447755814 0.6
      vertex 15.875 24.694444447755814 0
      vertex 15.875 19.402777776122093 0.6
    endloop
  endfacet
  facet normal -0.868243142239615 0.49613893815531135 0
    outer loop
      vertex 9.94880685955286 9.031939774751663 0
      vertex 9.94880685955286 9.031939774751663 0.6
      vertex 15.875 19.402777776122093 0
    endloop
  endfacet
  facet normal -0.868243142239615 0.49613893815531135 0
    outer loop
      vertex 15.875 19.402777776122093 0.6
      vertex 15.875 19.402777776122093 0
      vertex 9.94880685955286 9.031939774751663 0.6
    endloop
  endfacet
  facet normal 0.5005029505811964 0.8657348303375095 0
    outer loop
      vertex 6.350000001490116 11.112499997019768 0
      vertex 6.350000001490116 11.112499997019768 0.6
      vertex 9.94880685955286 9.031939774751663 0
    endloop
  endfacet
  facet normal 0.5005029505811964 0.8657348303375095 0
    outer loop
      vertex 9.94880685955286 9.031939774751663 0.6
      vertex 9.94880685955286 9.031939774751663 0
      vertex 6.350000001490116 11.112499997019768 0.6
    endloop
  endfacet
  facet normal 1 0 0
    outer loop
      vertex 6.350000001490116 24.165277779102325 0
      vertex 6.350000001490116 24.165277779102325 0.6
      vertex 6.350000001490116 11.112499997019768 0
    endloop
  endfacet
  facet normal 1 0 0
    outer loop
      vertex 6.350000001490116 11.112499997019768 0.6
      vertex 6.350000001490116 11.112499997019768 0
      vertex 6.350000001490116 24.165277779102325 0.6
    endloop
  endfacet
  facet normal 0.500502949438596 -0.8657348309980755 0
    outer loop
      vertex 17.638888888061047 30.691666670143604 0
      vertex 17.638888888061047 30.691666670143604 0.6
      vertex 6.350000001490116 24.165277779102325 0
    endloop
  endfacet
  facet normal 0.500502949438596 -0.8657348309980755 0
    outer loop
      vertex 6.350000001490116 24.165277779102325 0.6
      vertex 6.350000001490116 24.165277779102325 0
      vertex 17.638888888061047 30.691666670143604 0.6
    endloop
  endfacet
  facet normal -0.500502949438596 -0.8657348309980755 0
    outer loop
      vertex 28.927777774631977 24.165277779102325 0
      vertex 28.927777774631977 24.165277779102325 0.6
      vertex 17.638888888061047 30.691666670143604 0
    endloop
  endfacet
  facet normal -0.500502949438596 -0.8657348309980755 0
    outer loop
      vertex 17.638888888061047 30.691666670143604 0.6
      vertex 17.638888888061047 30.691666670143604 0
      vertex 28.927777774631977 24.165277779102325 0.6
    endloop
  endfacet
  facet normal -1 0 0
    outer loop
      vertex 28.927777774631977 11.112499997019768 0
      vertex 28.927777774631977 11.112499997019768 0.6
      vertex 28.927777774631977 24.165277779102325 0
    endloop
  endfacet
  facet normal -1 0 0
    outer loop
      vertex 28.927777774631977 24.165277779102325 0.6
      vertex 28.927777774631977 24.165277779102325 0
      vertex 28.927777774631977 11.112499997019768 0.6
    endloop
  endfacet
  facet normal -0.5005029492378555 0.8657348311141285 0
    outer loop
      vertex 25.328970916569233 9.031939782202244 0
      vertex 25.328970916569233 9.031939782202244 0.6
      vertex 28.927777774631977 11.112499997019768 0
    endloop
  endfacet
  facet normal -0.5005029492378555 0.8657348311141285 0
    outer loop
      vertex 28.927777774631977 11.112499997019768 0.6
      vertex 28.927777774631977 11.112499997019768 0
      vertex 25.328970916569233 9.031939782202244 0.6
    endloop
  endfacet
  facet normal 0.8682431420860739 0.49613893842400797 0
    outer loop
      vertex 19.402777776122093 19.402777776122093 0
      vertex 19.402777776122093 19.402777776122093 0.6
      vertex 25.328970916569233 9.031939782202244 0
    endloop
  endfacet
  facet normal 0.8682431420860739 0.49613893842400797 0
    outer loop
      vertex 25.328970916569233 9.031939782202244 0.6
      vertex 25.328970916569233 9.031939782202244 0
      vertex 19.402777776122093 19.402777776122093 0.6
    endloop
  endfacet
  facet normal 1 0 0
    outer loop
      vertex 19.402777776122093 24.694444447755814 0
      vertex 19.402777776122093 24.694444447755814 0.6
      vertex 19.402777776122093 19.402777776122093 0
    endloop
  endfacet
  facet normal 1 0 0
    outer loop
      vertex 19.402777776122093 19.402777776122093 0.6
      vertex 19.402777776122093 19.402777776122093 0
      vertex 19.402777776122093 24.694444447755814 0.6
    endloop
  endfacet
  facet normal 0 -1 0
    outer loop
      vertex 19.75555555522442 24.694444447755814 0
      vertex 19.75555555522442 24.694444447755814 0.6
      vertex 19.402777776122093 24.694444447755814 0
    endloop
  endfacet
  facet normal 0 -1 0
    outer loop
      vertex 19.402777776122093 24.694444447755814 0.6
      vertex 19.402777776122093 24.694444447755814 0
      vertex 19.75555555522442 24.694444447755814 0.6
    endloop
  endfacet
  facet normal 0.08715572132286664 -0.9961946999661717 0
    outer loop
      vertex 19.878073990345 24.705163419246674 0
      vertex 19.878073990345 24.705163419246674 0.6
      vertex 19.75555555522442 24.694444447755814 0
    endloop
  endfacet
  facet normal 0.08715572132286664 -0.9961946999661717 0
    outer loop
      vertex 19.75555555522442 24.694444447755814 0.6
      vertex 19.75555555522442 24.694444447755814 0
      vertex 19.878073990345 24.705163419246674 0.6
    endloop
  endfacet
  facet normal 0 -1 0
    outer loop
      vertex 21.910360351204872 7.055555552244186 0
      vertex 21.910360351204872 7.055555552244186 0.6
      vertex 13.367417424917221 7.055555552244186 0
    endloop
  endfacet
  facet normal 0 -1 0
    outer loop
      vertex 13.367417424917221 7.055555552244186 0.6
      vertex 13.367417424917221 7.055555552244186 0
      vertex 21.910360351204872 7.055555552244186 0.6
    endloop
  endfacet
  facet normal -0.5005029491140656 0.8657348311856946 0
    outer loop
      vertex 17.638888888061047 4.5861111134290695 0
      vertex 17.638888888061047 4.5861111134290695 0.6
      vertex 21.910360351204872 7.055555552244186 0
    endloop
  endfacet
  facet normal -0.5005029491140656 0.8657348311856946 0
    outer loop
      vertex 21.910360351204872 7.055555552244186 0.6
      vertex 21.910360351204872 7.055555552244186 0
      vertex 17.638888888061047 4.5861111134290695 0.6
    endloop
  endfacet
  facet normal 0.5005029491140656 0.8657348311856946 0
    outer loop
      vertex 13.367417424917221 7.055555552244186 0
      vertex 13.367417424917221 7.055555552244186 0.6
      vertex 17.638888888061047 4.5861111134290695 0
    endloop
  endfacet
  facet normal 0.5005029491140656 0.8657348311856946 0
    outer loop
      vertex 17.638888888061047 4.5861111134290695 0.6
      vertex 17.638888888061047 4.5861111134290695 0
      vertex 13.367417424917221 7.055555552244186 0.6
    endloop
  endfacet
  facet normal 0 0 1
    outer loop
      vertex 31.397222220897675 9.701388888061047 0.6
      vertex 31.397222220897675 25.576388888061047 0.6
      vertex 28.927777774631977 24.165277779102325 0.6
    endloop
  endfacet
  facet normal 0 0 1
    outer loop
      vertex 31.397222220897675 9.701388888061047 0.6
      vertex 28.927777774631977 24.165277779102325 0.6
      vertex 28.927777774631977 11.112499997019768 0.6
    endloop
  endfacet
  facet normal 0 0 1
    outer loop
      vertex 31.397222220897675 9.701388888061047 0.6
      vertex 28.927777774631977 11.112499997019768 0.6
      vertex 25.328970916569233 9.031939782202244 0.6
    endloop
  endfacet
  facet normal 0 0 1
    outer loop
      vertex 21.910360351204872 7.055555552244186 0.6
      vertex 31.397222220897675 9.701388888061047 0.6
      vertex 25.328970916569233 9.031939782202244 0.6
    endloop
  endfacet
  facet normal 0 0 1
    outer loop
      vertex 21.910360351204872 7.055555552244186 0.6
      vertex 25.328970916569233 9.031939782202244 0.6
      vertex 19.402777776122093 19.402777776122093 0.6
    endloop
  endfacet
  facet normal 0 0 1
    outer loop
      vertex 13.367417424917221 7.055555552244186 0.6
      vertex 21.910360351204872 7.055555552244186 0.6
      vertex 19.402777776122093 19.402777776122093 0.6
    endloop
  endfacet
  facet normal 0 0 1
    outer loop
      vertex 17.638888888061047 30.691666670143604 0.6
      vertex 28.927777774631977 24.165277779102325 0.6
      vertex 31.397222220897675 25.576388888061047 0.6
    endloop
  endfacet
  facet normal 0 0 1
    outer loop
      vertex 17.638888888061047 30.691666670143604 0.6
      vertex 31.397222220897675 25.576388888061047 0.6
      vertex 17.638888888061047 33.51388888806105 0.6
    endloop
  endfacet
  facet normal 0 0 1
    outer loop
      vertex 17.638888888061047 30.691666670143604 0.6
      vertex 17.638888888061047 33.51388888806105 0.6
      vertex 3.8805555552244186 25.576388888061047 0.6
    endloop
  endfacet
  facet normal 0 0 1
    outer loop
      vertex 6.350000001490116 24.165277779102325 0.6
      vertex 17.638888888061047 30.691666670143604 0.6
      vertex 3.8805555552244186 25.576388888061047 0.6
    endloop
  endfacet
  facet normal 0 0 1
    outer loop
      vertex 6.350000001490116 24.165277779102325 0.6
      vertex 3.8805555552244186 25.576388888061047 0.6
      vertex 3.8805555552244186 9.701388888061047 0.6
    endloop
  endfacet
  facet normal 0 0 1
    outer loop
      vertex 6.350000001490116 11.112499997019768 0.6
      vertex 6.350000001490116 24.165277779102325 0.6
      vertex 3.8805555552244186 9.701388888061047 0.6
    endloop
  endfacet
  facet normal 0 0 1
    outer loop
      vertex 9.94880685955286 9.031939774751663 0.6
      vertex 6.350000001490116 11.112499997019768 0.6
      vertex 3.8805555552244186 9.701388888061047 0.6
    endloop
  endfacet
  facet normal 0 0 1
    outer loop
      vertex 17.638888888061047 1.7638888880610466 0.6
      vertex 31.397222220897675 9.701388888061047 0.6
      vertex 21.910360351204872 7.055555552244186 0.6
    endloop
  endfacet
  facet normal 0 0 1
    outer loop
      vertex 17.638888888061047 1.7638888880610466 0.6
      vertex 21.910360351204872 7.055555552244186 0.6
      vertex 17.638888888061047 4.5861111134290695 0.6
    endloop
  endfacet
  facet normal 0 0 1
    outer loop
      vertex 17.638888888061047 1.7638888880610466 0.6
      vertex 17.638888888061047 4.5861111134290695 0.6
      vertex 13.367417424917221 7.055555552244186 0.6
    endloop
  endfacet
  facet normal 0 0 1
    outer loop
      vertex 9.94880685955286 9.031939774751663 0.6
      vertex 3.8805555552244186 9.701388888061047 0.6
      vertex 17.638888888061047 1.7638888880610466 0.6
    endloop
  endfacet
  facet normal 0 0 1
    outer loop
      vertex 9.94880685955286 9.031939774751663 0.6
      vertex 17.638888888061047 1.7638888880610466 0.6
      vertex 13.367417424917221 7.055555552244186 0.6
    endloop
  endfacet
  facet normal 0 0 1
    outer loop
      vertex 15.875 19.402777776122093 0.6
      vertex 9.94880685955286 9.031939774751663 0.6
      vertex 13.367417424917221 7.055555552244186 0.6
    endloop
  endfacet
  facet normal 0 0 1
    outer loop
      vertex 15.875 19.402777776122093 0.6
      vertex 13.367417424917221 7.055555552244186 0.6
      vertex 19.402777776122093 19.402777776122093 0.6
    endloop
  endfacet
  facet normal 0 0 1
    outer loop
      vertex 15.875 24.694444447755814 0.6
      vertex 15.875 19.402777776122093 0.6
      vertex 19.402777776122093 19.402777776122093 0.6
    endloop
  endfacet
  facet normal 0 0 1
    outer loop
      vertex 15.875 24.694444447755814 0.6
      vertex 19.402777776122093 19.402777776122093 0.6
      vertex 19.402777776122093 24.694444447755814 0.6
    endloop
  endfacet
  facet normal 0 0 1
    outer loop
      vertex 19.996869765222073 24.7369946539402 0.6
      vertex 20.108333334326744 24.788970962166786 0.6
      vertex 20.209077924489975 24.859513089060783 0.6
    endloop
  endfacet
  facet normal 0 0 1
    outer loop
      vertex 19.996869765222073 24.7369946539402 0.6
      vertex 20.209077924489975 24.859513089060783 0.6
      vertex 20.29604246467352 24.946477629244328 0.6
    endloop
  endfacet
  facet normal 0 0 1
    outer loop
      vertex 19.996869765222073 24.7369946539402 0.6
      vertex 20.29604246467352 24.946477629244328 0.6
      vertex 20.366584591567516 25.04722221940756 0.6
    endloop
  endfacet
  facet normal 0 0 1
    outer loop
      vertex 19.996869765222073 24.7369946539402 0.6
      vertex 20.366584591567516 25.04722221940756 0.6
      vertex 20.418560907244682 25.15868578851223 0.6
    endloop
  endfacet
  facet normal 0 0 1
    outer loop
      vertex 19.996869765222073 24.7369946539402 0.6
      vertex 20.418560907244682 25.15868578851223 0.6
      vertex 20.45039213448763 25.2774815633893 0.6
    endloop
  endfacet
  facet normal 0 0 1
    outer loop
      vertex 19.878073990345 24.705163419246674 0.6
      vertex 19.996869765222073 24.7369946539402 0.6
      vertex 20.45039213448763 25.2774815633893 0.6
    endloop
  endfacet
  facet normal 0 0 1
    outer loop
      vertex 19.75555555522442 24.694444447755814 0.6
      vertex 19.878073990345 24.705163419246674 0.6
      vertex 20.45039213448763 25.2774815633893 0.6
    endloop
  endfacet
  facet normal 0 0 1
    outer loop
      vertex 19.75555555522442 24.694444447755814 0.6
      vertex 20.45039213448763 25.2774815633893 0.6
      vertex 20.46111111342907 25.399999998509884 0.6
    endloop
  endfacet
  facet normal 0 0 1
    outer loop
      vertex 19.75555555522442 24.694444447755814 0.6
      vertex 20.46111111342907 25.399999998509884 0.6
      vertex 20.45039213448763 25.522518433630466 0.6
    endloop
  endfacet
  facet normal 0 0 1
    outer loop
      vertex 19.75555555522442 24.694444447755814 0.6
      vertex 20.45039213448763 25.522518433630466 0.6
      vertex 20.418560907244682 25.64131421595812 0.6
    endloop
  endfacet
  facet normal 0 0 1
    outer loop
      vertex 19.75555555522442 24.694444447755814 0.6
      vertex 20.418560907244682 25.64131421595812 0.6
      vertex 20.366584591567516 25.75277777761221 0.6
    endloop
  endfacet
  facet normal 0 0 1
    outer loop
      vertex 19.75555555522442 24.694444447755814 0.6
      vertex 20.366584591567516 25.75277777761221 0.6
      vertex 20.29604246467352 25.85352236777544 0.6
    endloop
  endfacet
  facet normal 0 0 1
    outer loop
      vertex 19.75555555522442 24.694444447755814 0.6
      vertex 20.29604246467352 25.85352236777544 0.6
      vertex 20.209077924489975 25.940486915409565 0.6
    endloop
  endfacet
  facet normal 0 0 1
    outer loop
      vertex 19.75555555522442 24.694444447755814 0.6
      vertex 20.209077924489975 25.940486915409565 0.6
      vertex 20.108333334326744 26.01102903485298 0.6
    endloop
  endfacet
  facet normal 0 0 1
    outer loop
      vertex 19.75555555522442 24.694444447755814 0.6
      vertex 20.108333334326744 26.01102903485298 0.6
      vertex 19.996869765222073 26.063005350530148 0.6
    endloop
  endfacet
  facet normal 0 0 1
    outer loop
      vertex 19.75555555522442 24.694444447755814 0.6
      vertex 19.996869765222073 26.063005350530148 0.6
      vertex 19.878073990345 26.094836577773094 0.6
    endloop
  endfacet
  facet normal 0 0 1
    outer loop
      vertex 19.75555555522442 24.694444447755814 0.6
      vertex 19.878073990345 26.094836577773094 0.6
      vertex 19.75555555522442 26.105555556714535 0.6
    endloop
  endfacet
  facet normal 0 0 1
    outer loop
      vertex 19.402777776122093 24.694444447755814 0.6
      vertex 19.75555555522442 24.694444447755814 0.6
      vertex 19.75555555522442 26.105555556714535 0.6
    endloop
  endfacet
  facet normal 0 0 1
    outer loop
      vertex 15.875 24.694444447755814 0.6
      vertex 19.402777776122093 24.694444447755814 0.6
      vertex 19.75555555522442 26.105555556714535 0.6
    endloop
  endfacet
  facet normal 0 0 1
    outer loop
      vertex 15.875 24.694444447755814 0.6
      vertex 19.75555555522442 26.105555556714535 0.6
      vertex 15.522222220897675 26.105555556714535 0.6
    endloop
  endfacet
  facet normal 0 0 1
    outer loop
      vertex 15.522222220897675 24.694444447755814 0.6
      vertex 15.875 24.694444447755814 0.6
      vertex 15.522222220897675 26.105555556714535 0.6
    endloop
  endfacet
  facet normal 0 0 1
    outer loop
      vertex 15.522222220897675 24.694444447755814 0.6
      vertex 15.522222220897675 26.105555556714535 0.6
      vertex 15.399703785777092 26.094836577773094 0.6
    endloop
  endfacet
  facet normal 0 0 1
    outer loop
      vertex 15.522222220897675 24.694444447755814 0.6
      vertex 15.399703785777092 26.094836577773094 0.6
      vertex 15.28090801090002 26.063005350530148 0.6
    endloop
  endfacet
  facet normal 0 0 1
    outer loop
      vertex 15.522222220897675 24.694444447755814 0.6
      vertex 15.28090801090002 26.063005350530148 0.6
      vertex 15.16944444179535 26.01102903485298 0.6
    endloop
  endfacet
  facet normal 0 0 1
    outer loop
      vertex 15.399703785777092 24.705163419246674 0.6
      vertex 15.522222220897675 24.694444447755814 0.6
      vertex 15.16944444179535 26.01102903485298 0.6
    endloop
  endfacet
  facet normal 0 0 1
    outer loop
      vertex 15.28090801090002 24.7369946539402 0.6
      vertex 15.399703785777092 24.705163419246674 0.6
      vertex 15.16944444179535 26.01102903485298 0.6
    endloop
  endfacet
  facet normal 0 0 1
    outer loop
      vertex 15.28090801090002 24.7369946539402 0.6
      vertex 15.16944444179535 26.01102903485298 0.6
      vertex 15.068699851632118 25.940486915409565 0.6
    endloop
  endfacet
  facet normal 0 0 1
    outer loop
      vertex 15.28090801090002 24.7369946539402 0.6
      vertex 15.068699851632118 25.940486915409565 0.6
      vertex 14.981735311448574 25.85352236777544 0.6
    endloop
  endfacet
  facet normal 0 0 1
    outer loop
      vertex 15.16944444179535 24.788970962166786 0.6
      vertex 15.28090801090002 24.7369946539402 0.6
      vertex 14.981735311448574 25.85352236777544 0.6
    endloop
  endfacet
  facet normal 0 0 1
    outer loop
      vertex 15.068699851632118 24.859513089060783 0.6
      vertex 15.16944444179535 24.788970962166786 0.6
      vertex 14.981735311448574 25.85352236777544 0.6
    endloop
  endfacet
  facet normal 0 0 1
    outer loop
      vertex 14.981735311448574 24.946477629244328 0.6
      vertex 15.068699851632118 24.859513089060783 0.6
      vertex 14.981735311448574 25.85352236777544 0.6
    endloop
  endfacet
  facet normal 0 0 1
    outer loop
      vertex 14.911193184554577 25.04722221940756 0.6
      vertex 14.981735311448574 24.946477629244328 0.6
      vertex 14.981735311448574 25.85352236777544 0.6
    endloop
  endfacet
  facet normal 0 0 1
    outer loop
      vertex 14.859216876327991 25.15868578851223 0.6
      vertex 14.911193184554577 25.04722221940756 0.6
      vertex 14.981735311448574 25.85352236777544 0.6
    endloop
  endfacet
  facet normal 0 0 1
    outer loop
      vertex 14.827385641634464 25.2774815633893 0.6
      vertex 14.859216876327991 25.15868578851223 0.6
      vertex 14.981735311448574 25.85352236777544 0.6
    endloop
  endfacet
  facet normal 0 0 1
    outer loop
      vertex 14.816666670143604 25.399999998509884 0.6
      vertex 14.827385641634464 25.2774815633893 0.6
      vertex 14.981735311448574 25.85352236777544 0.6
    endloop
  endfacet
  facet normal 0 0 1
    outer loop
      vertex 14.816666670143604 25.399999998509884 0.6
      vertex 14.981735311448574 25.85352236777544 0.6
      vertex 14.911193184554577 25.75277777761221 0.6
    endloop
  endfacet
  facet normal 0 0 1
    outer loop
      vertex 14.859216876327991 25.64131421595812 0.6
      vertex 14.827385641634464 25.522518433630466 0.6
      vertex 14.816666670143604 25.399999998509884 0.6
    endloop
  endfacet
  facet normal 0 0 1
    outer loop
      vertex 14.859216876327991 25.64131421595812 0.6
      vertex 14.816666670143604 25.399999998509884 0.6
      vertex 14.911193184554577 25.75277777761221 0.6
    endloop
  endfacet
  facet normal 0 0 -1
    outer loop
      vertex 28.927777774631977 24.165277779102325 0
      vertex 31.397222220897675 25.576388888061047 0
      vertex 31.397222220897675 9.701388888061047 0
    endloop
  endfacet
  facet normal 0 0 -1
    outer loop
      vertex 28.927777774631977 11.112499997019768 0
      vertex 28.927777774631977 24.165277779102325 0
      vertex 31.397222220897675 9.701388888061047 0
    endloop
  endfacet
  facet normal 0 0 -1
    outer loop
      vertex 25.328970916569233 9.031939782202244 0
      vertex 28.927777774631977 11.112499997019768 0
      vertex 31.397222220897675 9.701388888061047 0
    endloop
  endfacet
  facet normal 0 0 -1
    outer loop
      vertex 25.328970916569233 9.031939782202244 0
      vertex 31.397222220897675 9.701388888061047 0
      vertex 21.910360351204872 7.055555552244186 0
    endloop
  endfacet
  facet normal 0 0 -1
    outer loop
      vertex 19.402777776122093 19.402777776122093 0
      vertex 25.328970916569233 9.031939782202244 0
      vertex 21.910360351204872 7.055555552244186 0
    endloop
  endfacet
  facet normal 0 0 -1
    outer loop
      vertex 19.402777776122093 19.402777776122093 0
      vertex 21.910360351204872 7.055555552244186 0
      vertex 13.367417424917221 7.055555552244186 0
    endloop
  endfacet
  facet normal 0 0 -1
    outer loop
      vertex 31.397222220897675 25.576388888061047 0
      vertex 28.927777774631977 24.165277779102325 0
      vertex 17.638888888061047 30.691666670143604 0
    endloop
  endfacet
  facet normal 0 0 -1
    outer loop
      vertex 17.638888888061047 33.51388888806105 0
      vertex 31.397222220897675 25.576388888061047 0
      vertex 17.638888888061047 30.691666670143604 0
    endloop
  endfacet
  facet normal 0 0 -1
    outer loop
      vertex 3.8805555552244186 25.576388888061047 0
      vertex 17.638888888061047 33.51388888806105 0
      vertex 17.638888888061047 30.691666670143604 0
    endloop
  endfacet
  facet normal 0 0 -1
    outer loop
      vertex 3.8805555552244186 25.576388888061047 0
      vertex 17.638888888061047 30.691666670143604 0
      vertex 6.350000001490116 24.165277779102325 0
    endloop
  endfacet
  facet normal 0 0 -1
    outer loop
      vertex 3.8805555552244186 9.701388888061047 0
      vertex 3.8805555552244186 25.576388888061047 0
      vertex 6.350000001490116 24.165277779102325 0
    endloop
  endfacet
  facet normal 0 0 -1
    outer loop
      vertex 3.8805555552244186 9.701388888061047 0
      vertex 6.350000001490116 24.165277779102325 0
      vertex 6.350000001490116 11.112499997019768 0
    endloop
  endfacet
  facet normal 0 0 -1
    outer loop
      vertex 3.8805555552244186 9.701388888061047 0
      vertex 6.350000001490116 11.112499997019768 0
      vertex 9.94880685955286 9.031939774751663 0
    endloop
  endfacet
  facet normal 0 0 -1
    outer loop
      vertex 21.910360351204872 7.055555552244186 0
      vertex 31.397222220897675 9.701388888061047 0
      vertex 17.638888888061047 1.7638888880610466 0
    endloop
  endfacet
  facet normal 0 0 -1
    outer loop
      vertex 17.638888888061047 4.5861111134290695 0
      vertex 21.910360351204872 7.055555552244186 0
      vertex 17.638888888061047 1.7638888880610466 0
    endloop
  endfacet
  facet normal 0 0 -1
    outer loop
      vertex 13.367417424917221 7.055555552244186 0
      vertex 17.638888888061047 4.5861111134290695 0
      vertex 17.638888888061047 1.7638888880610466 0
    endloop
  endfacet
  facet normal 0 0 -1
    outer loop
      vertex 17.638888888061047 1.7638888880610466 0
      vertex 3.8805555552244186 9.701388888061047 0
      vertex 9.94880685955286 9.031939774751663 0
    endloop
  endfacet
  facet normal 0 0 -1
    outer loop
      vertex 13.367417424917221 7.055555552244186 0
      vertex 17.638888888061047 1.7638888880610466 0
      vertex 9.94880685955286 9.031939774751663 0
    endloop
  endfacet
  facet normal 0 0 -1
    outer loop
      vertex 13.367417424917221 7.055555552244186 0
      vertex 9.94880685955286 9.031939774751663 0
      vertex 15.875 19.402777776122093 0
    endloop
  endfacet
  facet normal 0 0 -1
    outer loop
      vertex 19.402777776122093 19.402777776122093 0
      vertex 13.367417424917221 7.055555552244186 0
      vertex 15.875 19.402777776122093 0
    endloop
  endfacet
  facet normal 0 0 -1
    outer loop
      vertex 19.402777776122093 19.402777776122093 0
      vertex 15.875 19.402777776122093 0
      vertex 15.875 24.694444447755814 0
    endloop
  endfacet
  facet normal 0 0 -1
    outer loop
      vertex 19.402777776122093 24.694444447755814 0
      vertex 19.402777776122093 19.402777776122093 0
      vertex 15.875 24.694444447755814 0
    endloop
  endfacet
  facet normal 0 0 -1
    outer loop
      vertex 20.209077924489975 24.859513089060783 0
      vertex 20.108333334326744 24.788970962166786 0
      vertex 19.996869765222073 24.7369946539402 0
    endloop
  endfacet
  facet normal 0 0 -1
    outer loop
      vertex 20.29604246467352 24.946477629244328 0
      vertex 20.209077924489975 24.859513089060783 0
      vertex 19.996869765222073 24.7369946539402 0
    endloop
  endfacet
  facet normal 0 0 -1
    outer loop
      vertex 20.366584591567516 25.04722221940756 0
      vertex 20.29604246467352 24.946477629244328 0
      vertex 19.996869765222073 24.7369946539402 0
    endloop
  endfacet
  facet normal 0 0 -1
    outer loop
      vertex 20.418560907244682 25.15868578851223 0
      vertex 20.366584591567516 25.04722221940756 0
      vertex 19.996869765222073 24.7369946539402 0
    endloop
  endfacet
  facet normal 0 0 -1
    outer loop
      vertex 20.45039213448763 25.2774815633893 0
      vertex 20.418560907244682 25.15868578851223 0
      vertex 19.996869765222073 24.7369946539402 0
    endloop
  endfacet
  facet normal 0 0 -1
    outer loop
      vertex 20.45039213448763 25.2774815633893 0
      vertex 19.996869765222073 24.7369946539402 0
      vertex 19.878073990345 24.705163419246674 0
    endloop
  endfacet
  facet normal 0 0 -1
    outer loop
      vertex 20.45039213448763 25.2774815633893 0
      vertex 19.878073990345 24.705163419246674 0
      vertex 19.75555555522442 24.694444447755814 0
    endloop
  endfacet
  facet normal 0 0 -1
    outer loop
      vertex 20.46111111342907 25.399999998509884 0
      vertex 20.45039213448763 25.2774815633893 0
      vertex 19.75555555522442 24.694444447755814 0
    endloop
  endfacet
  facet normal 0 0 -1
    outer loop
      vertex 20.45039213448763 25.522518433630466 0
      vertex 20.46111111342907 25.399999998509884 0
      vertex 19.75555555522442 24.694444447755814 0
    endloop
  endfacet
  facet normal 0 0 -1
    outer loop
      vertex 20.418560907244682 25.64131421595812 0
      vertex 20.45039213448763 25.522518433630466 0
      vertex 19.75555555522442 24.694444447755814 0
    endloop
  endfacet
  facet normal 0 0 -1
    outer loop
      vertex 20.366584591567516 25.75277777761221 0
      vertex 20.418560907244682 25.64131421595812 0
      vertex 19.75555555522442 24.694444447755814 0
    endloop
  endfacet
  facet normal 0 0 -1
    outer loop
      vertex 20.29604246467352 25.85352236777544 0
      vertex 20.366584591567516 25.75277777761221 0
      vertex 19.75555555522442 24.694444447755814 0
    endloop
  endfacet
  facet normal 0 0 -1
    outer loop
      vertex 20.209077924489975 25.940486915409565 0
      vertex 20.29604246467352 25.85352236777544 0
      vertex 19.75555555522442 24.694444447755814 0
    endloop
  endfacet
  facet normal 0 0 -1
    outer loop
      vertex 20.108333334326744 26.01102903485298 0
      vertex 20.209077924489975 25.940486915409565 0
      vertex 19.75555555522442 24.694444447755814 0
    endloop
  endfacet
  facet normal 0 0 -1
    outer loop
      vertex 19.996869765222073 26.063005350530148 0
      vertex 20.108333334326744 26.01102903485298 0
      vertex 19.75555555522442 24.694444447755814 0
    endloop
  endfacet
  facet normal 0 0 -1
    outer loop
      vertex 19.878073990345 26.094836577773094 0
      vertex 19.996869765222073 26.063005350530148 0
      vertex 19.75555555522442 24.694444447755814 0
    endloop
  endfacet
  facet normal 0 0 -1
    outer loop
      vertex 19.75555555522442 26.105555556714535 0
      vertex 19.878073990345 26.094836577773094 0
      vertex 19.75555555522442 24.694444447755814 0
    endloop
  endfacet
  facet normal 0 0 -1
    outer loop
      vertex 19.75555555522442 26.105555556714535 0
      vertex 19.75555555522442 24.694444447755814 0
      vertex 19.402777776122093 24.694444447755814 0
    endloop
  endfacet
  facet normal 0 0 -1
    outer loop
      vertex 19.75555555522442 26.105555556714535 0
      vertex 19.402777776122093 24.694444447755814 0
      vertex 15.875 24.694444447755814 0
    endloop
  endfacet
  facet normal 0 0 -1
    outer loop
      vertex 15.522222220897675 26.105555556714535 0
      vertex 19.75555555522442 26.105555556714535 0
      vertex 15.875 24.694444447755814 0
    endloop
  endfacet
  facet normal 0 0 -1
    outer loop
      vertex 15.522222220897675 26.105555556714535 0
      vertex 15.875 24.694444447755814 0
      vertex 15.522222220897675 24.694444447755814 0
    endloop
  endfacet
  facet normal 0 0 -1
    outer loop
      vertex 15.399703785777092 26.094836577773094 0
      vertex 15.522222220897675 26.105555556714535 0
      vertex 15.522222220897675 24.694444447755814 0
    endloop
  endfacet
  facet normal 0 0 -1
    outer loop
      vertex 15.28090801090002 26.063005350530148 0
      vertex 15.399703785777092 26.094836577773094 0
      vertex 15.522222220897675 24.694444447755814 0
    endloop
  endfacet
  facet normal 0 0 -1
    outer loop
      vertex 15.16944444179535 26.01102903485298 0
      vertex 15.28090801090002 26.063005350530148 0
      vertex 15.522222220897675 24.694444447755814 0
    endloop
  endfacet
  facet normal 0 0 -1
    outer loop
      vertex 15.16944444179535 26.01102903485298 0
      vertex 15.522222220897675 24.694444447755814 0
      vertex 15.399703785777092 24.705163419246674 0
    endloop
  endfacet
  facet normal 0 0 -1
    outer loop
      vertex 15.16944444179535 26.01102903485298 0
      vertex 15.399703785777092 24.705163419246674 0
      vertex 15.28090801090002 24.7369946539402 0
    endloop
  endfacet
  facet normal 0 0 -1
    outer loop
      vertex 15.068699851632118 25.940486915409565 0
      vertex 15.16944444179535 26.01102903485298 0
      vertex 15.28090801090002 24.7369946539402 0
    endloop
  endfacet
  facet normal 0 0 -1
    outer loop
      vertex 14.981735311448574 25.85352236777544 0
      vertex 15.068699851632118 25.940486915409565 0
      vertex 15.28090801090002 24.7369946539402 0
    endloop
  endfacet
  facet normal 0 0 -1
    outer loop
      vertex 14.981735311448574 25.85352236777544 0
      vertex 15.28090801090002 24.7369946539402 0
      vertex 15.16944444179535 24.788970962166786 0
    endloop
  endfacet
  facet normal 0 0 -1
    outer loop
      vertex 14.981735311448574 25.85352236777544 0
      vertex 15.16944444179535 24.788970962166786 0
      vertex 15.068699851632118 24.859513089060783 0
    endloop
  endfacet
  facet normal 0 0 -1
    outer loop
      vertex 14.981735311448574 25.85352236777544 0
      vertex 15.068699851632118 24.859513089060783 0
      vertex 14.981735311448574 24.946477629244328 0
    endloop
  endfacet
  facet normal 0 0 -1
    outer loop
      vertex 14.981735311448574 25.85352236777544 0
      vertex 14.981735311448574 24.946477629244328 0
      vertex 14.911193184554577 25.04722221940756 0
    endloop
  endfacet
  facet normal 0 0 -1
    outer loop
      vertex 14.981735311448574 25.85352236777544 0
      vertex 14.911193184554577 25.04722221940756 0
      vertex 14.859216876327991 25.15868578851223 0
    endloop
  endfacet
  facet normal 0 0 -1
    outer loop
      vertex 14.981735311448574 25.85352236777544 0
      vertex 14.859216876327991 25.15868578851223 0
      vertex 14.827385641634464 25.2774815633893 0
    endloop
  endfacet
  facet normal 0 0 -1
    outer loop
      vertex 14.981735311448574 25.85352236777544 0
      vertex 14.827385641634464 25.2774815633893 0
      vertex 14.816666670143604 25.399999998509884 0
    endloop
  endfacet
  facet normal 0 0 -1
    outer loop
      vertex 14.911193184554577 25.75277777761221 0
      vertex 14.981735311448574 25.85352236777544 0
      vertex 14.816666670143604 25.399999998509884 0
    endloop
  endfacet
  facet normal 0 0 -1
    outer loop
      vertex 14.816666670143604 25.399999998509884 0
      vertex 14.827385641634464 25.522518433630466 0
      vertex 14.859216876327991 25.64131421595812 0
    endloop
  endfacet
  facet normal 0 0 -1
    outer loop
      vertex 14.911193184554577 25.75277777761221 0
      vertex 14.816666670143604 25.399999998509884 0
      vertex 14.859216876327991 25.64131421595812 0
    endloop
  endfacet
endsolid OpenSCAD_Model
