solid OpenSCAD_Model
  facet normal 1 0 0
    outer loop
      vertex 31.397222220897675 25.576388888061047 0
      vertex 31.397222220897675 9.701388888061047 0.6
      vertex 31.397222220897675 9.701388888061047 0
    endloop
  endfacet
  facet normal 1 0 0
    outer loop
      vertex 31.397222220897675 25.576388888061047 0
      vertex 31.397222220897675 25.576388888061047 0.6
      vertex 31.397222220897675 9.701388888061047 0.6
    endloop
  endfacet
  facet normal 0.499722453503113 0.8661855860407912 0
    outer loop
      vertex 17.638888888061047 33.51388888806105 0
      vertex 31.397222220897675 25.576388888061047 0.6
      vertex 31.397222220897675 25.576388888061047 0
    endloop
  endfacet
  facet normal 0.499722453503113 0.8661855860407912 0
    outer loop
      vertex 17.638888888061047 33.51388888806105 0
      vertex 17.638888888061047 33.51388888806105 0.6
      vertex 31.397222220897675 25.576388888061047 0.6
    endloop
  endfacet
  facet normal -0.499722453503113 0.8661855860407912 0
    outer loop
      vertex 3.8805555552244186 25.576388888061047 0
      vertex 17.638888888061047 33.51388888806105 0.6
      vertex 17.638888888061047 33.51388888806105 0
    endloop
  endfacet
  facet normal -0.499722453503113 0.8661855860407912 0
    outer loop
      vertex 3.8805555552244186 25.576388888061047 0
      vertex 3.8805555552244186 25.576388888061047 0.6
      vertex 17.638888888061047 33.51388888806105 0.6
    endloop
  endfacet
  facet normal -1 0 0
    outer loop
      vertex 3.8805555552244186 9.701388888061047 0
      vertex 3.8805555552244186 25.576388888061047 0.6
      vertex 3.8805555552244186 25.576388888061047 0
    endloop
  endfacet
  facet normal -1 0 0
    outer loop
      vertex 3.8805555552244186 9.701388888061047 0
      vertex 3.8805555552244186 9.701388888061047 0.6
      vertex 3.8805555552244186 25.576388888061047 0.6
    endloop
  endfacet
  facet normal -0.499722453503113 -0.8661855860407912 0
    outer loop
      vertex 17.638888888061047 1.7638888880610466 0
      vertex 3.8805555552244186 9.701388888061047 0.6
      vertex 3.8805555552244186 9.701388888061047 0
    endloop
  endfacet
  facet normal -0.499722453503113 -0.8661855860407912 0
    outer loop
      vertex 17.638888888061047 1.7638888880610466 0
      vertex 17.638888888061047 1.7638888880610466 0.6
      vertex 3.8805555552244186 9.701388888061047 0.6
    endloop
  endfacet
  facet normal 0.499722453503113 -0.8661855860407912 0
    outer loop
      vertex 31.397222220897675 9.701388888061047 0
      vertex 17.638888888061047 1.7638888880610466 0.6
      vertex 17.638888888061047 1.7638888880610466 0
    endloop
  endfacet
  facet normal 0.499722453503113 -0.8661855860407912 0
    outer loop
      vertex 31.397222220897675 9.701388888061047 0
      vertex 31.397222220897675 9.701388888061047 0.6
      vertex 17.638888888061047 1.7638888880610466 0.6
    endloop
  endfacet
  facet normal 1 0 0
    outer loop
      vertex 6.350000001490116 24.165277779102325 0
      vertex 6.350000001490116 24.165277779102325 0.6
      vertex 6.350000001490116 11.112499997019768 0
    endloop
  endfacet
  facet normal 1 0 0
    outer loop
      vertex 6.350000001490116 11.112499997019768 0.6
      vertex 6.350000001490116 11.112499997019768 0
      vertex 6.350000001490116 24.165277779102325 0.6
    endloop
  endfacet
  facet normal 0.500502949438596 -0.8657348309980755 0
    outer loop
      vertex 17.638888888061047 30.691666670143604 0
      vertex 17.638888888061047 30.691666670143604 0.6
      vertex 6.350000001490116 24.165277779102325 0
    endloop
  endfacet
  facet normal 0.500502949438596 -0.8657348309980755 0
    outer loop
      vertex 6.350000001490116 24.165277779102325 0.6
      vertex 6.350000001490116 24.165277779102325 0
      vertex 17.638888888061047 30.691666670143604 0.6
    endloop
  endfacet
  facet normal -0.500502949438596 -0.8657348309980755 0
    outer loop
      vertex 28.927777774631977 24.165277779102325 0
      vertex 28.927777774631977 24.165277779102325 0.6
      vertex 17.638888888061047 30.691666670143604 0
    endloop
  endfacet
  facet normal -0.500502949438596 -0.8657348309980755 0
    outer loop
      vertex 17.638888888061047 30.691666670143604 0.6
      vertex 17.638888888061047 30.691666670143604 0
      vertex 28.927777774631977 24.165277779102325 0.6
    endloop
  endfacet
  facet normal -1 0 0
    outer loop
      vertex 28.927777774631977 11.112499997019768 0
      vertex 28.927777774631977 11.112499997019768 0.6
      vertex 28.927777774631977 24.165277779102325 0
    endloop
  endfacet
  facet normal -1 0 0
    outer loop
      vertex 28.927777774631977 24.165277779102325 0.6
      vertex 28.927777774631977 24.165277779102325 0
      vertex 28.927777774631977 11.112499997019768 0.6
    endloop
  endfacet
  facet normal -0.5005029483761405 0.8657348316123076 0
    outer loop
      vertex 26.1226599290967 9.490791246294975 0
      vertex 26.1226599290967 9.490791246294975 0.6
      vertex 28.927777774631977 11.112499997019768 0
    endloop
  endfacet
  facet normal -0.5005029483761405 0.8657348316123076 0
    outer loop
      vertex 28.927777774631977 11.112499997019768 0.6
      vertex 28.927777774631977 11.112499997019768 0
      vertex 26.1226599290967 9.490791246294975 0.6
    endloop
  endfacet
  facet normal 0.8944271910784659 0.44721359534285804 0
    outer loop
      vertex 17.638888888061047 26.45833333581686 0
      vertex 17.638888888061047 26.45833333581686 0.6
      vertex 26.1226599290967 9.490791246294975 0
    endloop
  endfacet
  facet normal 0.8944271910784659 0.44721359534285804 0
    outer loop
      vertex 26.1226599290967 9.490791246294975 0.6
      vertex 26.1226599290967 9.490791246294975 0
      vertex 17.638888888061047 26.45833333581686 0.6
    endloop
  endfacet
  facet normal -0.8944271909999159 0.4472135954999579 0
    outer loop
      vertex 9.155117839574814 9.490791238844395 0
      vertex 9.155117839574814 9.490791238844395 0.6
      vertex 17.638888888061047 26.45833333581686 0
    endloop
  endfacet
  facet normal -0.8944271909999159 0.4472135954999579 0
    outer loop
      vertex 17.638888888061047 26.45833333581686 0.6
      vertex 17.638888888061047 26.45833333581686 0
      vertex 9.155117839574814 9.490791238844395 0.6
    endloop
  endfacet
  facet normal 0.5005029510959287 0.86573483003993 0
    outer loop
      vertex 6.350000001490116 11.112499997019768 0
      vertex 6.350000001490116 11.112499997019768 0.6
      vertex 9.155117839574814 9.490791238844395 0
    endloop
  endfacet
  facet normal 0.5005029510959287 0.86573483003993 0
    outer loop
      vertex 9.155117839574814 9.490791238844395 0.6
      vertex 9.155117839574814 9.490791238844395 0
      vertex 6.350000001490116 11.112499997019768 0.6
    endloop
  endfacet
  facet normal 0 -1 0
    outer loop
      vertex 24.96141141653061 8.819444447755814 0
      vertex 24.96141141653061 8.819444447755814 0.6
      vertex 10.316366359591484 8.819444447755814 0
    endloop
  endfacet
  facet normal 0 -1 0
    outer loop
      vertex 10.316366359591484 8.819444447755814 0.6
      vertex 10.316366359591484 8.819444447755814 0
      vertex 24.96141141653061 8.819444447755814 0.6
    endloop
  endfacet
  facet normal -0.5005029490212232 0.865734831239369 0
    outer loop
      vertex 17.638888888061047 4.5861111134290695 0
      vertex 17.638888888061047 4.5861111134290695 0.6
      vertex 24.96141141653061 8.819444447755814 0
    endloop
  endfacet
  facet normal -0.5005029490212232 0.865734831239369 0
    outer loop
      vertex 24.96141141653061 8.819444447755814 0.6
      vertex 24.96141141653061 8.819444447755814 0
      vertex 17.638888888061047 4.5861111134290695 0.6
    endloop
  endfacet
  facet normal 0.5005029490212232 0.865734831239369 0
    outer loop
      vertex 10.316366359591484 8.819444447755814 0
      vertex 10.316366359591484 8.819444447755814 0.6
      vertex 17.638888888061047 4.5861111134290695 0
    endloop
  endfacet
  facet normal 0.5005029490212232 0.865734831239369 0
    outer loop
      vertex 17.638888888061047 4.5861111134290695 0.6
      vertex 17.638888888061047 4.5861111134290695 0
      vertex 10.316366359591484 8.819444447755814 0.6
    endloop
  endfacet
  facet normal 0 0 1
    outer loop
      vertex 31.397222220897675 9.701388888061047 0.6
      vertex 31.397222220897675 25.576388888061047 0.6
      vertex 28.927777774631977 24.165277779102325 0.6
    endloop
  endfacet
  facet normal 0 0 1
    outer loop
      vertex 31.397222220897675 9.701388888061047 0.6
      vertex 28.927777774631977 24.165277779102325 0.6
      vertex 28.927777774631977 11.112499997019768 0.6
    endloop
  endfacet
  facet normal 0 0 1
    outer loop
      vertex 28.927777774631977 24.165277779102325 0.6
      vertex 31.397222220897675 25.576388888061047 0.6
      vertex 17.638888888061047 33.51388888806105 0.6
    endloop
  endfacet
  facet normal 0 0 1
    outer loop
      vertex 17.638888888061047 30.691666670143604 0.6
      vertex 28.927777774631977 24.165277779102325 0.6
      vertex 17.638888888061047 33.51388888806105 0.6
    endloop
  endfacet
  facet normal 0 0 1
    outer loop
      vertex 17.638888888061047 30.691666670143604 0.6
      vertex 17.638888888061047 33.51388888806105 0.6
      vertex 3.8805555552244186 25.576388888061047 0.6
    endloop
  endfacet
  facet normal 0 0 1
    outer loop
      vertex 6.350000001490116 24.165277779102325 0.6
      vertex 17.638888888061047 30.691666670143604 0.6
      vertex 3.8805555552244186 25.576388888061047 0.6
    endloop
  endfacet
  facet normal 0 0 1
    outer loop
      vertex 6.350000001490116 24.165277779102325 0.6
      vertex 3.8805555552244186 25.576388888061047 0.6
      vertex 3.8805555552244186 9.701388888061047 0.6
    endloop
  endfacet
  facet normal 0 0 1
    outer loop
      vertex 6.350000001490116 11.112499997019768 0.6
      vertex 6.350000001490116 24.165277779102325 0.6
      vertex 3.8805555552244186 9.701388888061047 0.6
    endloop
  endfacet
  facet normal 0 0 1
    outer loop
      vertex 17.638888888061047 1.7638888880610466 0.6
      vertex 31.397222220897675 9.701388888061047 0.6
      vertex 24.96141141653061 8.819444447755814 0.6
    endloop
  endfacet
  facet normal 0 0 1
    outer loop
      vertex 17.638888888061047 1.7638888880610466 0.6
      vertex 24.96141141653061 8.819444447755814 0.6
      vertex 17.638888888061047 4.5861111134290695 0.6
    endloop
  endfacet
  facet normal 0 0 1
    outer loop
      vertex 17.638888888061047 1.7638888880610466 0.6
      vertex 17.638888888061047 4.5861111134290695 0.6
      vertex 10.316366359591484 8.819444447755814 0.6
    endloop
  endfacet
  facet normal 0 0 1
    outer loop
      vertex 9.155117839574814 9.490791238844395 0.6
      vertex 6.350000001490116 11.112499997019768 0.6
      vertex 3.8805555552244186 9.701388888061047 0.6
    endloop
  endfacet
  facet normal 0 0 1
    outer loop
      vertex 9.155117839574814 9.490791238844395 0.6
      vertex 3.8805555552244186 9.701388888061047 0.6
      vertex 17.638888888061047 1.7638888880610466 0.6
    endloop
  endfacet
  facet normal 0 0 1
    outer loop
      vertex 9.155117839574814 9.490791238844395 0.6
      vertex 17.638888888061047 1.7638888880610466 0.6
      vertex 10.316366359591484 8.819444447755814 0.6
    endloop
  endfacet
  facet normal 0 0 1
    outer loop
      vertex 17.638888888061047 26.45833333581686 0.6
      vertex 9.155117839574814 9.490791238844395 0.6
      vertex 10.316366359591484 8.819444447755814 0.6
    endloop
  endfacet
  facet normal 0 0 1
    outer loop
      vertex 17.638888888061047 26.45833333581686 0.6
      vertex 10.316366359591484 8.819444447755814 0.6
      vertex 24.96141141653061 8.819444447755814 0.6
    endloop
  endfacet
  facet normal 0 0 1
    outer loop
      vertex 26.1226599290967 9.490791246294975 0.6
      vertex 17.638888888061047 26.45833333581686 0.6
      vertex 24.96141141653061 8.819444447755814 0.6
    endloop
  endfacet
  facet normal 0 0 1
    outer loop
      vertex 31.397222220897675 9.701388888061047 0.6
      vertex 28.927777774631977 11.112499997019768 0.6
      vertex 26.1226599290967 9.490791246294975 0.6
    endloop
  endfacet
  facet normal 0 0 1
    outer loop
      vertex 24.96141141653061 8.819444447755814 0.6
      vertex 31.397222220897675 9.701388888061047 0.6
      vertex 26.1226599290967 9.490791246294975 0.6
    endloop
  endfacet
  facet normal 0 0 -1
    outer loop
      vertex 28.927777774631977 24.165277779102325 0
      vertex 31.397222220897675 25.576388888061047 0
      vertex 31.397222220897675 9.701388888061047 0
    endloop
  endfacet
  facet normal 0 0 -1
    outer loop
      vertex 28.927777774631977 11.112499997019768 0
      vertex 28.927777774631977 24.165277779102325 0
      vertex 31.397222220897675 9.701388888061047 0
    endloop
  endfacet
  facet normal 0 0 -1
    outer loop
      vertex 17.638888888061047 33.51388888806105 0
      vertex 31.397222220897675 25.576388888061047 0
      vertex 28.927777774631977 24.165277779102325 0
    endloop
  endfacet
  facet normal 0 0 -1
    outer loop
      vertex 17.638888888061047 33.51388888806105 0
      vertex 28.927777774631977 24.165277779102325 0
      vertex 17.638888888061047 30.691666670143604 0
    endloop
  endfacet
  facet normal 0 0 -1
    outer loop
      vertex 3.8805555552244186 25.576388888061047 0
      vertex 17.638888888061047 33.51388888806105 0
      vertex 17.638888888061047 30.691666670143604 0
    endloop
  endfacet
  facet normal 0 0 -1
    outer loop
      vertex 3.8805555552244186 25.576388888061047 0
      vertex 17.638888888061047 30.691666670143604 0
      vertex 6.350000001490116 24.165277779102325 0
    endloop
  endfacet
  facet normal 0 0 -1
    outer loop
      vertex 3.8805555552244186 9.701388888061047 0
      vertex 3.8805555552244186 25.576388888061047 0
      vertex 6.350000001490116 24.165277779102325 0
    endloop
  endfacet
  facet normal 0 0 -1
    outer loop
      vertex 3.8805555552244186 9.701388888061047 0
      vertex 6.350000001490116 24.165277779102325 0
      vertex 6.350000001490116 11.112499997019768 0
    endloop
  endfacet
  facet normal 0 0 -1
    outer loop
      vertex 24.96141141653061 8.819444447755814 0
      vertex 31.397222220897675 9.701388888061047 0
      vertex 17.638888888061047 1.7638888880610466 0
    endloop
  endfacet
  facet normal 0 0 -1
    outer loop
      vertex 17.638888888061047 4.5861111134290695 0
      vertex 24.96141141653061 8.819444447755814 0
      vertex 17.638888888061047 1.7638888880610466 0
    endloop
  endfacet
  facet normal 0 0 -1
    outer loop
      vertex 10.316366359591484 8.819444447755814 0
      vertex 17.638888888061047 4.5861111134290695 0
      vertex 17.638888888061047 1.7638888880610466 0
    endloop
  endfacet
  facet normal 0 0 -1
    outer loop
      vertex 3.8805555552244186 9.701388888061047 0
      vertex 6.350000001490116 11.112499997019768 0
      vertex 9.155117839574814 9.490791238844395 0
    endloop
  endfacet
  facet normal 0 0 -1
    outer loop
      vertex 17.638888888061047 1.7638888880610466 0
      vertex 3.8805555552244186 9.701388888061047 0
      vertex 9.155117839574814 9.490791238844395 0
    endloop
  endfacet
  facet normal 0 0 -1
    outer loop
      vertex 10.316366359591484 8.819444447755814 0
      vertex 17.638888888061047 1.7638888880610466 0
      vertex 9.155117839574814 9.490791238844395 0
    endloop
  endfacet
  facet normal 0 0 -1
    outer loop
      vertex 10.316366359591484 8.819444447755814 0
      vertex 9.155117839574814 9.490791238844395 0
      vertex 17.638888888061047 26.45833333581686 0
    endloop
  endfacet
  facet normal 0 0 -1
    outer loop
      vertex 24.96141141653061 8.819444447755814 0
      vertex 10.316366359591484 8.819444447755814 0
      vertex 17.638888888061047 26.45833333581686 0
    endloop
  endfacet
  facet normal 0 0 -1
    outer loop
      vertex 24.96141141653061 8.819444447755814 0
      vertex 17.638888888061047 26.45833333581686 0
      vertex 26.1226599290967 9.490791246294975 0
    endloop
  endfacet
  facet normal 0 0 -1
    outer loop
      vertex 26.1226599290967 9.490791246294975 0
      vertex 28.927777774631977 11.112499997019768 0
      vertex 31.397222220897675 9.701388888061047 0
    endloop
  endfacet
  facet normal 0 0 -1
    outer loop
      vertex 26.1226599290967 9.490791246294975 0
      vertex 31.397222220897675 9.701388888061047 0
      vertex 24.96141141653061 8.819444447755814 0
    endloop
  endfacet
endsolid OpenSCAD_Model
